<?xml version="1.0" encoding="UTF-8" standalone="no"?><svg xmlns="http://www.w3.org/2000/svg" xmlns:xlink="http://www.w3.org/1999/xlink" contentStyleType="text/css" height="336px" preserveAspectRatio="none" style="width:987px;height:336px;background:#FFFFFF;" version="1.1" viewBox="0 0 987 336" width="987px" zoomAndPan="magnify"><defs/><g><!--MD5=[8500a1c764844bee8b1b6bf6e386642d]
class RSR--><g id="elem_RSR"><rect codeLine="1" fill="#FFE6CC" height="56.2656" id="RSR" rx="2.5" ry="2.5" style="stroke:#B86611;stroke-width:0.5;" width="226" x="540" y="7"/><ellipse cx="555" cy="27.1328" fill="#ADD1B2" rx="11" ry="11" style="stroke:#181818;stroke-width:1.0;"/><path d="M557.3438,22.8047 C556.4063,22.3672 555.8125,22.2266 554.9375,22.2266 C552.3125,22.2266 550.3125,24.3047 550.3125,27.0234 L550.3125,28.1484 C550.3125,30.7266 552.4219,32.6172 555.3125,32.6172 C556.5313,32.6172 557.6875,32.3203 558.4375,31.7734 C559.0156,31.3672 559.3438,30.9141 559.3438,30.5234 C559.3438,30.0703 558.9531,29.6797 558.4844,29.6797 C558.2656,29.6797 558.0625,29.7578 557.875,29.9453 C557.4219,30.4297 557.4219,30.4297 557.2344,30.5234 C556.8125,30.7891 556.125,30.9141 555.3594,30.9141 C553.3125,30.9141 552.0156,29.8203 552.0156,28.1172 L552.0156,27.0234 C552.0156,25.2422 553.2656,23.9297 555,23.9297 C555.5781,23.9297 556.1875,24.0859 556.6563,24.3359 C557.1406,24.6172 557.3125,24.8359 557.4063,25.2422 C557.4688,25.6484 557.5,25.7734 557.6406,25.8984 C557.7813,26.0391 558.0156,26.1484 558.2344,26.1484 C558.5,26.1484 558.7656,26.0078 558.9375,25.7891 C559.0469,25.6328 559.0781,25.4453 559.0781,25.0234 L559.0781,23.6016 C559.0781,23.1641 559.0625,23.0391 558.9688,22.8828 C558.8125,22.6172 558.5313,22.4766 558.2344,22.4766 C557.9375,22.4766 557.7344,22.5703 557.5156,22.8828 L557.3438,22.8047 Z " fill="#000000"/><text fill="#000000" font-family="sans-serif" font-size="12" font-style="italic" lengthAdjust="spacing" textLength="88" x="622" y="23.1387">«Composition»</text><text fill="#000000" font-family="sans-serif" font-size="14" lengthAdjust="spacing" textLength="194" x="569" y="38.9639">Radiation Summary Report</text><line style="stroke:#B86611;stroke-width:0.5;" x1="541" x2="765" y1="47.2656" y2="47.2656"/><line style="stroke:#B86611;stroke-width:0.5;" x1="541" x2="765" y1="55.2656" y2="55.2656"/></g><!--MD5=[b4859b39c0d8ee185000a2081ad3058c]
class DoseSummary--><g id="elem_DoseSummary"><rect codeLine="2" fill="#D5E8D4" height="56.2656" id="DoseSummary" rx="2.5" ry="2.5" style="stroke:#008000;stroke-width:0.5;" width="211" x="204.5" y="140"/><ellipse cx="219.5" cy="160.1328" fill="#ADD1B2" rx="11" ry="11" style="stroke:#181818;stroke-width:1.0;"/><path d="M221.8438,155.8047 C220.9063,155.3672 220.3125,155.2266 219.4375,155.2266 C216.8125,155.2266 214.8125,157.3047 214.8125,160.0234 L214.8125,161.1484 C214.8125,163.7266 216.9219,165.6172 219.8125,165.6172 C221.0313,165.6172 222.1875,165.3203 222.9375,164.7734 C223.5156,164.3672 223.8438,163.9141 223.8438,163.5234 C223.8438,163.0703 223.4531,162.6797 222.9844,162.6797 C222.7656,162.6797 222.5625,162.7578 222.375,162.9453 C221.9219,163.4297 221.9219,163.4297 221.7344,163.5234 C221.3125,163.7891 220.625,163.9141 219.8594,163.9141 C217.8125,163.9141 216.5156,162.8203 216.5156,161.1172 L216.5156,160.0234 C216.5156,158.2422 217.7656,156.9297 219.5,156.9297 C220.0781,156.9297 220.6875,157.0859 221.1563,157.3359 C221.6406,157.6172 221.8125,157.8359 221.9063,158.2422 C221.9688,158.6484 222,158.7734 222.1406,158.8984 C222.2813,159.0391 222.5156,159.1484 222.7344,159.1484 C223,159.1484 223.2656,159.0078 223.4375,158.7891 C223.5469,158.6328 223.5781,158.4453 223.5781,158.0234 L223.5781,156.6016 C223.5781,156.1641 223.5625,156.0391 223.4688,155.8828 C223.3125,155.6172 223.0313,155.4766 222.7344,155.4766 C222.4375,155.4766 222.2344,155.5703 222.0156,155.8828 L221.8438,155.8047 Z " fill="#000000"/><text fill="#000000" font-family="sans-serif" font-size="12" font-style="italic" lengthAdjust="spacing" textLength="86" x="280" y="156.1387">«Observation»</text><text fill="#000000" font-family="sans-serif" font-size="14" lengthAdjust="spacing" textLength="179" x="233.5" y="171.9639">Radiation Dose Summary</text><line style="stroke:#008000;stroke-width:0.5;" x1="205.5" x2="414.5" y1="180.2656" y2="180.2656"/><line style="stroke:#008000;stroke-width:0.5;" x1="205.5" x2="414.5" y1="188.2656" y2="188.2656"/></g><!--MD5=[b886da55dec2a43269367b4fd2ac0db2]
class PregnancyStatus--><g id="elem_PregnancyStatus"><rect codeLine="3" fill="#FFF2CC" height="56.2656" id="PregnancyStatus" rx="2.5" ry="2.5" style="stroke:#B3880C;stroke-width:0.5;" width="193" x="450.5" y="140"/><ellipse cx="465.5" cy="160.1328" fill="#ADD1B2" rx="11" ry="11" style="stroke:#181818;stroke-width:1.0;"/><path d="M467.8438,155.8047 C466.9063,155.3672 466.3125,155.2266 465.4375,155.2266 C462.8125,155.2266 460.8125,157.3047 460.8125,160.0234 L460.8125,161.1484 C460.8125,163.7266 462.9219,165.6172 465.8125,165.6172 C467.0313,165.6172 468.1875,165.3203 468.9375,164.7734 C469.5156,164.3672 469.8438,163.9141 469.8438,163.5234 C469.8438,163.0703 469.4531,162.6797 468.9844,162.6797 C468.7656,162.6797 468.5625,162.7578 468.375,162.9453 C467.9219,163.4297 467.9219,163.4297 467.7344,163.5234 C467.3125,163.7891 466.625,163.9141 465.8594,163.9141 C463.8125,163.9141 462.5156,162.8203 462.5156,161.1172 L462.5156,160.0234 C462.5156,158.2422 463.7656,156.9297 465.5,156.9297 C466.0781,156.9297 466.6875,157.0859 467.1563,157.3359 C467.6406,157.6172 467.8125,157.8359 467.9063,158.2422 C467.9688,158.6484 468,158.7734 468.1406,158.8984 C468.2813,159.0391 468.5156,159.1484 468.7344,159.1484 C469,159.1484 469.2656,159.0078 469.4375,158.7891 C469.5469,158.6328 469.5781,158.4453 469.5781,158.0234 L469.5781,156.6016 C469.5781,156.1641 469.5625,156.0391 469.4688,155.8828 C469.3125,155.6172 469.0313,155.4766 468.7344,155.4766 C468.4375,155.4766 468.2344,155.5703 468.0156,155.8828 L467.8438,155.8047 Z " fill="#000000"/><text fill="#000000" font-family="sans-serif" font-size="12" font-style="italic" lengthAdjust="spacing" textLength="86" x="517" y="156.1387">«Observation»</text><text fill="#000000" font-family="sans-serif" font-size="14" lengthAdjust="spacing" textLength="161" x="479.5" y="171.9639">Pregnancy Status (IPS)</text><line style="stroke:#B3880C;stroke-width:0.5;" x1="451.5" x2="642.5" y1="180.2656" y2="180.2656"/><line style="stroke:#B3880C;stroke-width:0.5;" x1="451.5" x2="642.5" y1="188.2656" y2="188.2656"/></g><!--MD5=[d2b67ff075484ba4c80a9a46de77ac85]
class Indication--><g id="elem_Indication"><rect codeLine="4" fill="#FFF2CC" height="56.2656" id="Indication" rx="2.5" ry="2.5" style="stroke:#B3880C;stroke-width:0.5;" width="195" x="678.5" y="140"/><ellipse cx="693.5" cy="160.1328" fill="#ADD1B2" rx="11" ry="11" style="stroke:#181818;stroke-width:1.0;"/><path d="M695.8438,155.8047 C694.9063,155.3672 694.3125,155.2266 693.4375,155.2266 C690.8125,155.2266 688.8125,157.3047 688.8125,160.0234 L688.8125,161.1484 C688.8125,163.7266 690.9219,165.6172 693.8125,165.6172 C695.0313,165.6172 696.1875,165.3203 696.9375,164.7734 C697.5156,164.3672 697.8438,163.9141 697.8438,163.5234 C697.8438,163.0703 697.4531,162.6797 696.9844,162.6797 C696.7656,162.6797 696.5625,162.7578 696.375,162.9453 C695.9219,163.4297 695.9219,163.4297 695.7344,163.5234 C695.3125,163.7891 694.625,163.9141 693.8594,163.9141 C691.8125,163.9141 690.5156,162.8203 690.5156,161.1172 L690.5156,160.0234 C690.5156,158.2422 691.7656,156.9297 693.5,156.9297 C694.0781,156.9297 694.6875,157.0859 695.1563,157.3359 C695.6406,157.6172 695.8125,157.8359 695.9063,158.2422 C695.9688,158.6484 696,158.7734 696.1406,158.8984 C696.2813,159.0391 696.5156,159.1484 696.7344,159.1484 C697,159.1484 697.2656,159.0078 697.4375,158.7891 C697.5469,158.6328 697.5781,158.4453 697.5781,158.0234 L697.5781,156.6016 C697.5781,156.1641 697.5625,156.0391 697.4688,155.8828 C697.3125,155.6172 697.0313,155.4766 696.7344,155.4766 C696.4375,155.4766 696.2344,155.5703 696.0156,155.8828 L695.8438,155.8047 Z " fill="#000000"/><text fill="#000000" font-family="sans-serif" font-size="12" font-style="italic" lengthAdjust="spacing" textLength="86" x="746" y="156.1387">«Observation»</text><text fill="#000000" font-family="sans-serif" font-size="14" lengthAdjust="spacing" textLength="163" x="707.5" y="171.9639">Indication Observation</text><line style="stroke:#B3880C;stroke-width:0.5;" x1="679.5" x2="872.5" y1="180.2656" y2="180.2656"/><line style="stroke:#B3880C;stroke-width:0.5;" x1="679.5" x2="872.5" y1="188.2656" y2="188.2656"/></g><!--MD5=[b3492d3bf48f89c99185815a77ba40ad]
class Modality--><g id="elem_Modality"><rect codeLine="5" fill="#34B1EB" height="56.2656" id="Modality" rx="2.5" ry="2.5" style="stroke:#217AA3;stroke-width:0.5;" width="146" x="7" y="273"/><ellipse cx="22" cy="293.1328" fill="#ADD1B2" rx="11" ry="11" style="stroke:#181818;stroke-width:1.0;"/><path d="M24.3438,288.8047 C23.4063,288.3672 22.8125,288.2266 21.9375,288.2266 C19.3125,288.2266 17.3125,290.3047 17.3125,293.0234 L17.3125,294.1484 C17.3125,296.7266 19.4219,298.6172 22.3125,298.6172 C23.5313,298.6172 24.6875,298.3203 25.4375,297.7734 C26.0156,297.3672 26.3438,296.9141 26.3438,296.5234 C26.3438,296.0703 25.9531,295.6797 25.4844,295.6797 C25.2656,295.6797 25.0625,295.7578 24.875,295.9453 C24.4219,296.4297 24.4219,296.4297 24.2344,296.5234 C23.8125,296.7891 23.125,296.9141 22.3594,296.9141 C20.3125,296.9141 19.0156,295.8203 19.0156,294.1172 L19.0156,293.0234 C19.0156,291.2422 20.2656,289.9297 22,289.9297 C22.5781,289.9297 23.1875,290.0859 23.6563,290.3359 C24.1406,290.6172 24.3125,290.8359 24.4063,291.2422 C24.4688,291.6484 24.5,291.7734 24.6406,291.8984 C24.7813,292.0391 25.0156,292.1484 25.2344,292.1484 C25.5,292.1484 25.7656,292.0078 25.9375,291.7891 C26.0469,291.6328 26.0781,291.4453 26.0781,291.0234 L26.0781,289.6016 C26.0781,289.1641 26.0625,289.0391 25.9688,288.8828 C25.8125,288.6172 25.5313,288.4766 25.2344,288.4766 C24.9375,288.4766 24.7344,288.5703 24.5156,288.8828 L24.3438,288.8047 Z " fill="#000000"/><text fill="#000000" font-family="sans-serif" font-size="12" font-style="italic" lengthAdjust="spacing" textLength="54" x="66" y="289.1387">«Device»</text><text fill="#000000" font-family="sans-serif" font-size="14" lengthAdjust="spacing" textLength="114" x="36" y="304.9639">Modality Device</text><line style="stroke:#217AA3;stroke-width:0.5;" x1="8" x2="152" y1="313.2656" y2="313.2656"/><line style="stroke:#217AA3;stroke-width:0.5;" x1="8" x2="152" y1="321.2656" y2="321.2656"/></g><!--MD5=[181c2720b9794936658bc7f80f7be5f7]
class ImagingStudy--><g id="elem_ImagingStudy"><rect codeLine="6" fill="#A3E7FF" height="48" id="ImagingStudy" rx="2.5" ry="2.5" style="stroke:#34B1EB;stroke-width:0.5;" width="130" x="188" y="277"/><ellipse cx="203" cy="293" fill="#ADD1B2" rx="11" ry="11" style="stroke:#181818;stroke-width:1.0;"/><path d="M205.3438,288.6719 C204.4063,288.2344 203.8125,288.0938 202.9375,288.0938 C200.3125,288.0938 198.3125,290.1719 198.3125,292.8906 L198.3125,294.0156 C198.3125,296.5938 200.4219,298.4844 203.3125,298.4844 C204.5313,298.4844 205.6875,298.1875 206.4375,297.6406 C207.0156,297.2344 207.3438,296.7813 207.3438,296.3906 C207.3438,295.9375 206.9531,295.5469 206.4844,295.5469 C206.2656,295.5469 206.0625,295.625 205.875,295.8125 C205.4219,296.2969 205.4219,296.2969 205.2344,296.3906 C204.8125,296.6563 204.125,296.7813 203.3594,296.7813 C201.3125,296.7813 200.0156,295.6875 200.0156,293.9844 L200.0156,292.8906 C200.0156,291.1094 201.2656,289.7969 203,289.7969 C203.5781,289.7969 204.1875,289.9531 204.6563,290.2031 C205.1406,290.4844 205.3125,290.7031 205.4063,291.1094 C205.4688,291.5156 205.5,291.6406 205.6406,291.7656 C205.7813,291.9063 206.0156,292.0156 206.2344,292.0156 C206.5,292.0156 206.7656,291.875 206.9375,291.6563 C207.0469,291.5 207.0781,291.3125 207.0781,290.8906 L207.0781,289.4688 C207.0781,289.0313 207.0625,288.9063 206.9688,288.75 C206.8125,288.4844 206.5313,288.3438 206.2344,288.3438 C205.9375,288.3438 205.7344,288.4375 205.5156,288.75 L205.3438,288.6719 Z " fill="#000000"/><text fill="#000000" font-family="sans-serif" font-size="14" lengthAdjust="spacing" textLength="98" x="217" y="297.8467">ImagingStudy</text><line style="stroke:#34B1EB;stroke-width:0.5;" x1="189" x2="317" y1="309" y2="309"/><line style="stroke:#34B1EB;stroke-width:0.5;" x1="189" x2="317" y1="317" y2="317"/></g><!--MD5=[9dd4eaa2771a2ff8dbee15cc1e732cab]
class Patient--><g id="elem_Patient"><rect codeLine="7" fill="#A3E7FF" height="48" id="Patient" rx="2.5" ry="2.5" style="stroke:#34B1EB;stroke-width:0.5;" width="85" x="672.5" y="277"/><ellipse cx="687.5" cy="293" fill="#ADD1B2" rx="11" ry="11" style="stroke:#181818;stroke-width:1.0;"/><path d="M689.8438,288.6719 C688.9063,288.2344 688.3125,288.0938 687.4375,288.0938 C684.8125,288.0938 682.8125,290.1719 682.8125,292.8906 L682.8125,294.0156 C682.8125,296.5938 684.9219,298.4844 687.8125,298.4844 C689.0313,298.4844 690.1875,298.1875 690.9375,297.6406 C691.5156,297.2344 691.8438,296.7813 691.8438,296.3906 C691.8438,295.9375 691.4531,295.5469 690.9844,295.5469 C690.7656,295.5469 690.5625,295.625 690.375,295.8125 C689.9219,296.2969 689.9219,296.2969 689.7344,296.3906 C689.3125,296.6563 688.625,296.7813 687.8594,296.7813 C685.8125,296.7813 684.5156,295.6875 684.5156,293.9844 L684.5156,292.8906 C684.5156,291.1094 685.7656,289.7969 687.5,289.7969 C688.0781,289.7969 688.6875,289.9531 689.1563,290.2031 C689.6406,290.4844 689.8125,290.7031 689.9063,291.1094 C689.9688,291.5156 690,291.6406 690.1406,291.7656 C690.2813,291.9063 690.5156,292.0156 690.7344,292.0156 C691,292.0156 691.2656,291.875 691.4375,291.6563 C691.5469,291.5 691.5781,291.3125 691.5781,290.8906 L691.5781,289.4688 C691.5781,289.0313 691.5625,288.9063 691.4688,288.75 C691.3125,288.4844 691.0313,288.3438 690.7344,288.3438 C690.4375,288.3438 690.2344,288.4375 690.0156,288.75 L689.8438,288.6719 Z " fill="#000000"/><text fill="#000000" font-family="sans-serif" font-size="14" lengthAdjust="spacing" textLength="53" x="701.5" y="297.8467">Patient</text><line style="stroke:#34B1EB;stroke-width:0.5;" x1="673.5" x2="756.5" y1="309" y2="309"/><line style="stroke:#34B1EB;stroke-width:0.5;" x1="673.5" x2="756.5" y1="317" y2="317"/></g><!--MD5=[2edc31ff762501c9cec4b1b863028f54]
class Practitioner--><g id="elem_Practitioner"><rect codeLine="8" fill="#A3E7FF" height="48" id="Practitioner" rx="2.5" ry="2.5" style="stroke:#34B1EB;stroke-width:0.5;" width="118" x="353" y="277"/><ellipse cx="368" cy="293" fill="#ADD1B2" rx="11" ry="11" style="stroke:#181818;stroke-width:1.0;"/><path d="M370.3438,288.6719 C369.4063,288.2344 368.8125,288.0938 367.9375,288.0938 C365.3125,288.0938 363.3125,290.1719 363.3125,292.8906 L363.3125,294.0156 C363.3125,296.5938 365.4219,298.4844 368.3125,298.4844 C369.5313,298.4844 370.6875,298.1875 371.4375,297.6406 C372.0156,297.2344 372.3438,296.7813 372.3438,296.3906 C372.3438,295.9375 371.9531,295.5469 371.4844,295.5469 C371.2656,295.5469 371.0625,295.625 370.875,295.8125 C370.4219,296.2969 370.4219,296.2969 370.2344,296.3906 C369.8125,296.6563 369.125,296.7813 368.3594,296.7813 C366.3125,296.7813 365.0156,295.6875 365.0156,293.9844 L365.0156,292.8906 C365.0156,291.1094 366.2656,289.7969 368,289.7969 C368.5781,289.7969 369.1875,289.9531 369.6563,290.2031 C370.1406,290.4844 370.3125,290.7031 370.4063,291.1094 C370.4688,291.5156 370.5,291.6406 370.6406,291.7656 C370.7813,291.9063 371.0156,292.0156 371.2344,292.0156 C371.5,292.0156 371.7656,291.875 371.9375,291.6563 C372.0469,291.5 372.0781,291.3125 372.0781,290.8906 L372.0781,289.4688 C372.0781,289.0313 372.0625,288.9063 371.9688,288.75 C371.8125,288.4844 371.5313,288.3438 371.2344,288.3438 C370.9375,288.3438 370.7344,288.4375 370.5156,288.75 L370.3438,288.6719 Z " fill="#000000"/><text fill="#000000" font-family="sans-serif" font-size="14" lengthAdjust="spacing" textLength="86" x="382" y="297.8467">Practitioner</text><line style="stroke:#34B1EB;stroke-width:0.5;" x1="354" x2="470" y1="309" y2="309"/><line style="stroke:#34B1EB;stroke-width:0.5;" x1="354" x2="470" y1="317" y2="317"/></g><!--MD5=[20f13c6ddc75344e2e7497a3d42bf954]
link DoseSummary to Patient--><g id="link_DoseSummary_Patient"><path codeLine="10" d="M389.387,196.067 C431.407,210.271 483.92,227.828 531,243 C577.15,257.8727 630.047,274.1826 667.244,285.531 " fill="none" id="DoseSummary-to-Patient" style="stroke:#181818;stroke-width:1.0;"/><polygon fill="#181818" points="672.157,287.029,664.7152,280.5776,667.3745,285.5705,662.3816,288.2297,672.157,287.029" style="stroke:#181818;stroke-width:1.0;"/><text fill="#000000" font-family="sans-serif" font-size="13" lengthAdjust="spacing" textLength="80" x="532" y="239.0669">subject[1..1]</text></g><!--MD5=[5aa97fc4799ec1163fe7e9084366329e]
link DoseSummary to Practitioner--><g id="link_DoseSummary_Practitioner"><path codeLine="11" d="M331.134,196.143 C348.603,218.579 373.29,250.2842 390.782,272.7492 " fill="none" id="DoseSummary-to-Practitioner" style="stroke:#181818;stroke-width:1.0;"/><polygon fill="#181818" points="393.961,276.832,391.5885,267.2732,390.8894,272.8867,385.2759,272.1877,393.961,276.832" style="stroke:#181818;stroke-width:1.0;"/><text fill="#000000" font-family="sans-serif" font-size="13" lengthAdjust="spacing" textLength="99" x="369" y="239.0669">performer[1..1]</text></g><!--MD5=[dc614404b2b16542ba2b7790b43c40d0]
link DoseSummary to ImagingStudy--><g id="link_DoseSummary_ImagingStudy"><path codeLine="12" d="M288.426,196.221 C282.066,205.286 275.589,215.705 271,226 C264.527,240.5199 260.164,257.7241 257.357,271.8884 " fill="none" id="DoseSummary-to-ImagingStudy" style="stroke:#181818;stroke-width:1.0;"/><polygon fill="#181818" points="256.392,276.9586,262.0043,268.8653,257.3269,272.0468,254.1454,267.3694,256.392,276.9586" style="stroke:#181818;stroke-width:1.0;"/><text fill="#000000" font-family="sans-serif" font-size="13" lengthAdjust="spacing" textLength="75" x="272" y="239.0669">partOf[0..1]</text></g><!--MD5=[e86d7847e318e8f34d2c4a36526fc5ac]
link DoseSummary to Modality--><g id="link_DoseSummary_Modality"><path codeLine="13" d="M240.44,196.085 C220.472,204.765 198.977,215.004 180,226 C158.109,238.6837 135.314,255.2538 117.026,269.4981 " fill="none" id="DoseSummary-to-Modality" style="stroke:#181818;stroke-width:1.0;"/><polygon fill="#181818" points="112.956,272.6873,122.5072,270.2841,116.8915,269.6031,117.5725,263.9874,112.956,272.6873" style="stroke:#181818;stroke-width:1.0;"/><text fill="#000000" font-family="sans-serif" font-size="13" lengthAdjust="spacing" textLength="76" x="181" y="239.0669">device[0..1]</text></g><!--MD5=[42cd951434895043a67d44797962ed85]
link PregnancyStatus to Patient--><g id="link_PregnancyStatus_Patient"><path codeLine="14" d="M581.81,196.143 C610.94,218.858 652.256,251.075 681.123,273.5838 " fill="none" id="PregnancyStatus-to-Patient" style="stroke:#181818;stroke-width:1.0;"/><polygon fill="#181818" points="685.288,276.832,680.6499,268.1436,681.3449,273.7576,675.7309,274.4526,685.288,276.832" style="stroke:#181818;stroke-width:1.0;"/><text fill="#000000" font-family="sans-serif" font-size="13" lengthAdjust="spacing" textLength="80" x="643" y="239.0669">subject[1..1]</text></g><!--MD5=[65f0e548677482f8fb1b1c4faee7f51e]
link Indication to Patient--><g id="link_Indication_Patient"><path codeLine="15" d="M763.361,196.143 C753,218.393 738.395,249.7586 727.951,272.188 " fill="none" id="Indication-to-Patient" style="stroke:#181818;stroke-width:1.0;"/><polygon fill="#181818" points="725.788,276.832,733.2133,270.3617,727.8986,272.2993,725.961,266.9847,725.788,276.832" style="stroke:#181818;stroke-width:1.0;"/><text fill="#000000" font-family="sans-serif" font-size="13" lengthAdjust="spacing" textLength="80" x="751" y="239.0669">subject[1..1]</text></g><!--MD5=[149c7f4c8d89f172f29eababa3e381ed]
link RSR to Patient--><g id="link_RSR_Patient"><path codeLine="16" d="M766.095,49.721 C817.854,62.99 871.887,89.016 891,140 C899.737,163.305 900.992,173.205 891,196 C878.626,224.231 865.678,225.948 840,243 C815.878,259.0193 786.522,272.6642 762.322,282.5839 " fill="none" id="RSR-to-Patient" style="stroke:#181818;stroke-width:1.0;"/><polygon fill="#181818" points="757.553,284.5178,767.3966,284.8405,762.1861,282.6379,764.3888,277.4275,757.553,284.5178" style="stroke:#181818;stroke-width:1.0;"/><text fill="#000000" font-family="sans-serif" font-size="13" lengthAdjust="spacing" textLength="80" x="899" y="172.5669">subject[1..1]</text></g><!--MD5=[6fcf94870099464672c6fa51c079bf27]
link RSR to DoseSummary--><g id="link_RSR_DoseSummary"><path codeLine="17" d="M539.858,60.794 C507.384,69.41 472.305,80.189 441,93 C411.642,105.014 380.657,122.282 356.197,137.116 " fill="none" id="RSR-to-DoseSummary" style="stroke:#181818;stroke-width:1.0;"/><polygon fill="#181818" points="351.707,139.856,361.4731,138.5818,355.9749,137.2512,357.3055,131.7531,351.707,139.856" style="stroke:#181818;stroke-width:1.0;"/><text fill="#000000" font-family="sans-serif" font-size="13" lengthAdjust="spacing" textLength="118" x="442" y="106.0669">section.entry[1..1]</text></g><!--MD5=[316a42c62ded7d4dccb830d3b8635bcf]
link RSR to PregnancyStatus--><g id="link_RSR_PregnancyStatus"><path codeLine="18" d="M610.159,63.168 C598.987,71.716 587.665,81.866 579,93 C569.354,105.396 562.015,121.144 556.815,134.923 " fill="none" id="RSR-to-PregnancyStatus" style="stroke:#181818;stroke-width:1.0;"/><polygon fill="#181818" points="554.996,139.9,561.8418,132.8194,556.7119,135.2037,554.3276,130.0738,554.996,139.9" style="stroke:#181818;stroke-width:1.0;"/><text fill="#000000" font-family="sans-serif" font-size="13" lengthAdjust="spacing" textLength="118" x="580" y="106.0669">section.entry[0..1]</text></g><!--MD5=[0969ec4e3c848c88f2833809a0d15d5a]
link RSR to Indication--><g id="link_RSR_Indication"><path codeLine="19" d="M678.486,63.143 C698.441,84.397 726.207,113.969 747.009,136.124 " fill="none" id="RSR-to-Indication" style="stroke:#181818;stroke-width:1.0;"/><polygon fill="#181818" points="750.547,139.891,747.303,130.5917,747.1247,136.2458,741.4706,136.0674,750.547,139.891" style="stroke:#181818;stroke-width:1.0;"/><text fill="#000000" font-family="sans-serif" font-size="13" lengthAdjust="spacing" textLength="118" x="723" y="106.0669">section.entry[0..1]</text></g><!--MD5=[369a91e5427b04fb75162a5cae91a98f]
@startuml
class "Radiation Summary Report" as RSR <<Composition>> #ffe6cc ##b86611
class "Radiation Dose Summary" as DoseSummary <<Observation>> #d5e8d4 ##green 
class "Pregnancy Status (IPS)" as PregnancyStatus <<Observation>> #fff2cc ##b3880c
class "Indication Observation" as Indication <<Observation>> #fff2cc ##b3880c
class "Modality Device" as Modality <<Device>> #34b1eb ##217aa3
class "ImagingStudy" as ImagingStudy #a3e7ff ##34b1eb
class "Patient" as Patient #a3e7ff ##34b1eb
class "Practitioner" as Practitioner #a3e7ff ##34b1eb

DoseSummary   -down-> Patient : subject[1..1]
DoseSummary   -down-> Practitioner : performer[1..1]
DoseSummary   -down-> ImagingStudy : partOf[0..1]
DoseSummary   -down-> Modality : device[0..1]
PregnancyStatus  -down-> Patient : subject[1..1]
Indication  -down-> Patient : subject[1..1]
RSR -down-> Patient : subject[1..1]
RSR  -down-> DoseSummary  : section.entry[1..1]
RSR  -down-> PregnancyStatus : section.entry[0..1]
RSR  -down-> Indication : section.entry[0..1]
@enduml

PlantUML version 1.2022.13beta8(Unknown compile time)
(GPL source distribution)
Java Runtime: Java(TM) SE Runtime Environment
JVM: Java HotSpot(TM) 64-Bit Server VM
Default Encoding: UTF-8
Language: en
Country: US
--></g></svg>