<?xml version="1.0" encoding="UTF-8" standalone="no"?><svg xmlns="http://www.w3.org/2000/svg" xmlns:xlink="http://www.w3.org/1999/xlink" contentStyleType="text/css" height="500px" preserveAspectRatio="none" style="width:1310px;height:500px;background:#FFFFFF;" version="1.1" viewBox="0 0 1310 500" width="1310px" zoomAndPan="magnify"><defs/><g><!--MD5=[8500a1c764844bee8b1b6bf6e386642d]
class RSR--><g id="elem_RSR"><rect codeLine="1" fill="#FFE6CC" height="56.2656" id="RSR" rx="2.5" ry="2.5" style="stroke:#B86611;stroke-width:0.5;" width="226" x="892" y="7"/><ellipse cx="907" cy="27.1328" fill="#ADD1B2" rx="11" ry="11" style="stroke:#181818;stroke-width:1.0;"/><path d="M909.3438,22.8047 C908.4063,22.3672 907.8125,22.2266 906.9375,22.2266 C904.3125,22.2266 902.3125,24.3047 902.3125,27.0234 L902.3125,28.1484 C902.3125,30.7266 904.4219,32.6172 907.3125,32.6172 C908.5313,32.6172 909.6875,32.3203 910.4375,31.7734 C911.0156,31.3672 911.3438,30.9141 911.3438,30.5234 C911.3438,30.0703 910.9531,29.6797 910.4844,29.6797 C910.2656,29.6797 910.0625,29.7578 909.875,29.9453 C909.4219,30.4297 909.4219,30.4297 909.2344,30.5234 C908.8125,30.7891 908.125,30.9141 907.3594,30.9141 C905.3125,30.9141 904.0156,29.8203 904.0156,28.1172 L904.0156,27.0234 C904.0156,25.2422 905.2656,23.9297 907,23.9297 C907.5781,23.9297 908.1875,24.0859 908.6563,24.3359 C909.1406,24.6172 909.3125,24.8359 909.4063,25.2422 C909.4688,25.6484 909.5,25.7734 909.6406,25.8984 C909.7813,26.0391 910.0156,26.1484 910.2344,26.1484 C910.5,26.1484 910.7656,26.0078 910.9375,25.7891 C911.0469,25.6328 911.0781,25.4453 911.0781,25.0234 L911.0781,23.6016 C911.0781,23.1641 911.0625,23.0391 910.9688,22.8828 C910.8125,22.6172 910.5313,22.4766 910.2344,22.4766 C909.9375,22.4766 909.7344,22.5703 909.5156,22.8828 L909.3438,22.8047 Z " fill="#000000"/><text fill="#000000" font-family="sans-serif" font-size="12" font-style="italic" lengthAdjust="spacing" textLength="88" x="974" y="23.1387">«Composition»</text><text fill="#000000" font-family="sans-serif" font-size="14" lengthAdjust="spacing" textLength="194" x="921" y="38.9639">Radiation Summary Report</text><line style="stroke:#B86611;stroke-width:0.5;" x1="893" x2="1117" y1="47.2656" y2="47.2656"/><line style="stroke:#B86611;stroke-width:0.5;" x1="893" x2="1117" y1="55.2656" y2="55.2656"/></g><!--MD5=[b4859b39c0d8ee185000a2081ad3058c]
class DoseSummary--><g id="elem_DoseSummary"><rect codeLine="2" fill="#D5E8D4" height="56.2656" id="DoseSummary" rx="2.5" ry="2.5" style="stroke:#008000;stroke-width:0.5;" width="211" x="461.5" y="140"/><ellipse cx="476.5" cy="160.1328" fill="#ADD1B2" rx="11" ry="11" style="stroke:#181818;stroke-width:1.0;"/><path d="M478.8438,155.8047 C477.9063,155.3672 477.3125,155.2266 476.4375,155.2266 C473.8125,155.2266 471.8125,157.3047 471.8125,160.0234 L471.8125,161.1484 C471.8125,163.7266 473.9219,165.6172 476.8125,165.6172 C478.0313,165.6172 479.1875,165.3203 479.9375,164.7734 C480.5156,164.3672 480.8438,163.9141 480.8438,163.5234 C480.8438,163.0703 480.4531,162.6797 479.9844,162.6797 C479.7656,162.6797 479.5625,162.7578 479.375,162.9453 C478.9219,163.4297 478.9219,163.4297 478.7344,163.5234 C478.3125,163.7891 477.625,163.9141 476.8594,163.9141 C474.8125,163.9141 473.5156,162.8203 473.5156,161.1172 L473.5156,160.0234 C473.5156,158.2422 474.7656,156.9297 476.5,156.9297 C477.0781,156.9297 477.6875,157.0859 478.1563,157.3359 C478.6406,157.6172 478.8125,157.8359 478.9063,158.2422 C478.9688,158.6484 479,158.7734 479.1406,158.8984 C479.2813,159.0391 479.5156,159.1484 479.7344,159.1484 C480,159.1484 480.2656,159.0078 480.4375,158.7891 C480.5469,158.6328 480.5781,158.4453 480.5781,158.0234 L480.5781,156.6016 C480.5781,156.1641 480.5625,156.0391 480.4688,155.8828 C480.3125,155.6172 480.0313,155.4766 479.7344,155.4766 C479.4375,155.4766 479.2344,155.5703 479.0156,155.8828 L478.8438,155.8047 Z " fill="#000000"/><text fill="#000000" font-family="sans-serif" font-size="12" font-style="italic" lengthAdjust="spacing" textLength="86" x="537" y="156.1387">«Observation»</text><text fill="#000000" font-family="sans-serif" font-size="14" lengthAdjust="spacing" textLength="179" x="490.5" y="171.9639">Radiation Dose Summary</text><line style="stroke:#008000;stroke-width:0.5;" x1="462.5" x2="671.5" y1="180.2656" y2="180.2656"/><line style="stroke:#008000;stroke-width:0.5;" x1="462.5" x2="671.5" y1="188.2656" y2="188.2656"/></g><!--MD5=[b886da55dec2a43269367b4fd2ac0db2]
class PregnancyStatus--><g id="elem_PregnancyStatus"><rect codeLine="3" fill="#FFF2CC" height="56.2656" id="PregnancyStatus" rx="2.5" ry="2.5" style="stroke:#B3880C;stroke-width:0.5;" width="193" x="811.5" y="226"/><ellipse cx="826.5" cy="246.1328" fill="#ADD1B2" rx="11" ry="11" style="stroke:#181818;stroke-width:1.0;"/><path d="M828.8438,241.8047 C827.9063,241.3672 827.3125,241.2266 826.4375,241.2266 C823.8125,241.2266 821.8125,243.3047 821.8125,246.0234 L821.8125,247.1484 C821.8125,249.7266 823.9219,251.6172 826.8125,251.6172 C828.0313,251.6172 829.1875,251.3203 829.9375,250.7734 C830.5156,250.3672 830.8438,249.9141 830.8438,249.5234 C830.8438,249.0703 830.4531,248.6797 829.9844,248.6797 C829.7656,248.6797 829.5625,248.7578 829.375,248.9453 C828.9219,249.4297 828.9219,249.4297 828.7344,249.5234 C828.3125,249.7891 827.625,249.9141 826.8594,249.9141 C824.8125,249.9141 823.5156,248.8203 823.5156,247.1172 L823.5156,246.0234 C823.5156,244.2422 824.7656,242.9297 826.5,242.9297 C827.0781,242.9297 827.6875,243.0859 828.1563,243.3359 C828.6406,243.6172 828.8125,243.8359 828.9063,244.2422 C828.9688,244.6484 829,244.7734 829.1406,244.8984 C829.2813,245.0391 829.5156,245.1484 829.7344,245.1484 C830,245.1484 830.2656,245.0078 830.4375,244.7891 C830.5469,244.6328 830.5781,244.4453 830.5781,244.0234 L830.5781,242.6016 C830.5781,242.1641 830.5625,242.0391 830.4688,241.8828 C830.3125,241.6172 830.0313,241.4766 829.7344,241.4766 C829.4375,241.4766 829.2344,241.5703 829.0156,241.8828 L828.8438,241.8047 Z " fill="#000000"/><text fill="#000000" font-family="sans-serif" font-size="12" font-style="italic" lengthAdjust="spacing" textLength="86" x="878" y="242.1387">«Observation»</text><text fill="#000000" font-family="sans-serif" font-size="14" lengthAdjust="spacing" textLength="161" x="840.5" y="257.9639">Pregnancy Status (IPS)</text><line style="stroke:#B3880C;stroke-width:0.5;" x1="812.5" x2="1003.5" y1="266.2656" y2="266.2656"/><line style="stroke:#B3880C;stroke-width:0.5;" x1="812.5" x2="1003.5" y1="274.2656" y2="274.2656"/></g><!--MD5=[d2b67ff075484ba4c80a9a46de77ac85]
class Indication--><g id="elem_Indication"><rect codeLine="4" fill="#FFF2CC" height="56.2656" id="Indication" rx="2.5" ry="2.5" style="stroke:#B3880C;stroke-width:0.5;" width="195" x="1009.5" y="226"/><ellipse cx="1024.5" cy="246.1328" fill="#ADD1B2" rx="11" ry="11" style="stroke:#181818;stroke-width:1.0;"/><path d="M1026.8438,241.8047 C1025.9063,241.3672 1025.3125,241.2266 1024.4375,241.2266 C1021.8125,241.2266 1019.8125,243.3047 1019.8125,246.0234 L1019.8125,247.1484 C1019.8125,249.7266 1021.9219,251.6172 1024.8125,251.6172 C1026.0313,251.6172 1027.1875,251.3203 1027.9375,250.7734 C1028.5156,250.3672 1028.8438,249.9141 1028.8438,249.5234 C1028.8438,249.0703 1028.4531,248.6797 1027.9844,248.6797 C1027.7656,248.6797 1027.5625,248.7578 1027.375,248.9453 C1026.9219,249.4297 1026.9219,249.4297 1026.7344,249.5234 C1026.3125,249.7891 1025.625,249.9141 1024.8594,249.9141 C1022.8125,249.9141 1021.5156,248.8203 1021.5156,247.1172 L1021.5156,246.0234 C1021.5156,244.2422 1022.7656,242.9297 1024.5,242.9297 C1025.0781,242.9297 1025.6875,243.0859 1026.1563,243.3359 C1026.6406,243.6172 1026.8125,243.8359 1026.9063,244.2422 C1026.9688,244.6484 1027,244.7734 1027.1406,244.8984 C1027.2813,245.0391 1027.5156,245.1484 1027.7344,245.1484 C1028,245.1484 1028.2656,245.0078 1028.4375,244.7891 C1028.5469,244.6328 1028.5781,244.4453 1028.5781,244.0234 L1028.5781,242.6016 C1028.5781,242.1641 1028.5625,242.0391 1028.4688,241.8828 C1028.3125,241.6172 1028.0313,241.4766 1027.7344,241.4766 C1027.4375,241.4766 1027.2344,241.5703 1027.0156,241.8828 L1026.8438,241.8047 Z " fill="#000000"/><text fill="#000000" font-family="sans-serif" font-size="12" font-style="italic" lengthAdjust="spacing" textLength="86" x="1077" y="242.1387">«Observation»</text><text fill="#000000" font-family="sans-serif" font-size="14" lengthAdjust="spacing" textLength="163" x="1038.5" y="257.9639">Indication Observation</text><line style="stroke:#B3880C;stroke-width:0.5;" x1="1010.5" x2="1203.5" y1="266.2656" y2="266.2656"/><line style="stroke:#B3880C;stroke-width:0.5;" x1="1010.5" x2="1203.5" y1="274.2656" y2="274.2656"/></g><!--MD5=[b3492d3bf48f89c99185815a77ba40ad]
class Modality--><g id="elem_Modality"><rect codeLine="5" fill="#34B1EB" height="56.2656" id="Modality" rx="2.5" ry="2.5" style="stroke:#217AA3;stroke-width:0.5;" width="146" x="7" y="312"/><ellipse cx="22" cy="332.1328" fill="#ADD1B2" rx="11" ry="11" style="stroke:#181818;stroke-width:1.0;"/><path d="M24.3438,327.8047 C23.4063,327.3672 22.8125,327.2266 21.9375,327.2266 C19.3125,327.2266 17.3125,329.3047 17.3125,332.0234 L17.3125,333.1484 C17.3125,335.7266 19.4219,337.6172 22.3125,337.6172 C23.5313,337.6172 24.6875,337.3203 25.4375,336.7734 C26.0156,336.3672 26.3438,335.9141 26.3438,335.5234 C26.3438,335.0703 25.9531,334.6797 25.4844,334.6797 C25.2656,334.6797 25.0625,334.7578 24.875,334.9453 C24.4219,335.4297 24.4219,335.4297 24.2344,335.5234 C23.8125,335.7891 23.125,335.9141 22.3594,335.9141 C20.3125,335.9141 19.0156,334.8203 19.0156,333.1172 L19.0156,332.0234 C19.0156,330.2422 20.2656,328.9297 22,328.9297 C22.5781,328.9297 23.1875,329.0859 23.6563,329.3359 C24.1406,329.6172 24.3125,329.8359 24.4063,330.2422 C24.4688,330.6484 24.5,330.7734 24.6406,330.8984 C24.7813,331.0391 25.0156,331.1484 25.2344,331.1484 C25.5,331.1484 25.7656,331.0078 25.9375,330.7891 C26.0469,330.6328 26.0781,330.4453 26.0781,330.0234 L26.0781,328.6016 C26.0781,328.1641 26.0625,328.0391 25.9688,327.8828 C25.8125,327.6172 25.5313,327.4766 25.2344,327.4766 C24.9375,327.4766 24.7344,327.5703 24.5156,327.8828 L24.3438,327.8047 Z " fill="#000000"/><text fill="#000000" font-family="sans-serif" font-size="12" font-style="italic" lengthAdjust="spacing" textLength="54" x="66" y="328.1387">«Device»</text><text fill="#000000" font-family="sans-serif" font-size="14" lengthAdjust="spacing" textLength="114" x="36" y="343.9639">Modality Device</text><line style="stroke:#217AA3;stroke-width:0.5;" x1="8" x2="152" y1="352.2656" y2="352.2656"/><line style="stroke:#217AA3;stroke-width:0.5;" x1="8" x2="152" y1="360.2656" y2="360.2656"/></g><!--MD5=[2bc0513b1b56fb56b1cce6737db1b7f7]
class IrradiationEvent--><g id="elem_IrradiationEvent"><rect codeLine="6" fill="#D5E8D4" height="56.2656" id="IrradiationEvent" rx="2.5" ry="2.5" style="stroke:#008000;stroke-width:0.5;" width="223" x="188.5" y="312"/><ellipse cx="203.5" cy="332.1328" fill="#ADD1B2" rx="11" ry="11" style="stroke:#181818;stroke-width:1.0;"/><path d="M205.8438,327.8047 C204.9063,327.3672 204.3125,327.2266 203.4375,327.2266 C200.8125,327.2266 198.8125,329.3047 198.8125,332.0234 L198.8125,333.1484 C198.8125,335.7266 200.9219,337.6172 203.8125,337.6172 C205.0313,337.6172 206.1875,337.3203 206.9375,336.7734 C207.5156,336.3672 207.8438,335.9141 207.8438,335.5234 C207.8438,335.0703 207.4531,334.6797 206.9844,334.6797 C206.7656,334.6797 206.5625,334.7578 206.375,334.9453 C205.9219,335.4297 205.9219,335.4297 205.7344,335.5234 C205.3125,335.7891 204.625,335.9141 203.8594,335.9141 C201.8125,335.9141 200.5156,334.8203 200.5156,333.1172 L200.5156,332.0234 C200.5156,330.2422 201.7656,328.9297 203.5,328.9297 C204.0781,328.9297 204.6875,329.0859 205.1563,329.3359 C205.6406,329.6172 205.8125,329.8359 205.9063,330.2422 C205.9688,330.6484 206,330.7734 206.1406,330.8984 C206.2813,331.0391 206.5156,331.1484 206.7344,331.1484 C207,331.1484 207.2656,331.0078 207.4375,330.7891 C207.5469,330.6328 207.5781,330.4453 207.5781,330.0234 L207.5781,328.6016 C207.5781,328.1641 207.5625,328.0391 207.4688,327.8828 C207.3125,327.6172 207.0313,327.4766 206.7344,327.4766 C206.4375,327.4766 206.2344,327.5703 206.0156,327.8828 L205.8438,327.8047 Z " fill="#000000"/><text fill="#000000" font-family="sans-serif" font-size="12" font-style="italic" lengthAdjust="spacing" textLength="86" x="270" y="328.1387">«Observation»</text><text fill="#000000" font-family="sans-serif" font-size="14" lengthAdjust="spacing" textLength="191" x="217.5" y="343.9639">Irradiation Event Summary</text><line style="stroke:#008000;stroke-width:0.5;" x1="189.5" x2="410.5" y1="352.2656" y2="352.2656"/><line style="stroke:#008000;stroke-width:0.5;" x1="189.5" x2="410.5" y1="360.2656" y2="360.2656"/></g><!--MD5=[181c2720b9794936658bc7f80f7be5f7]
class ImagingStudy--><g id="elem_ImagingStudy"><rect codeLine="7" fill="#A3E7FF" height="48" id="ImagingStudy" rx="2.5" ry="2.5" style="stroke:#34B1EB;stroke-width:0.5;" width="130" x="447" y="316"/><ellipse cx="462" cy="332" fill="#ADD1B2" rx="11" ry="11" style="stroke:#181818;stroke-width:1.0;"/><path d="M464.3438,327.6719 C463.4063,327.2344 462.8125,327.0938 461.9375,327.0938 C459.3125,327.0938 457.3125,329.1719 457.3125,331.8906 L457.3125,333.0156 C457.3125,335.5938 459.4219,337.4844 462.3125,337.4844 C463.5313,337.4844 464.6875,337.1875 465.4375,336.6406 C466.0156,336.2344 466.3438,335.7813 466.3438,335.3906 C466.3438,334.9375 465.9531,334.5469 465.4844,334.5469 C465.2656,334.5469 465.0625,334.625 464.875,334.8125 C464.4219,335.2969 464.4219,335.2969 464.2344,335.3906 C463.8125,335.6563 463.125,335.7813 462.3594,335.7813 C460.3125,335.7813 459.0156,334.6875 459.0156,332.9844 L459.0156,331.8906 C459.0156,330.1094 460.2656,328.7969 462,328.7969 C462.5781,328.7969 463.1875,328.9531 463.6563,329.2031 C464.1406,329.4844 464.3125,329.7031 464.4063,330.1094 C464.4688,330.5156 464.5,330.6406 464.6406,330.7656 C464.7813,330.9063 465.0156,331.0156 465.2344,331.0156 C465.5,331.0156 465.7656,330.875 465.9375,330.6563 C466.0469,330.5 466.0781,330.3125 466.0781,329.8906 L466.0781,328.4688 C466.0781,328.0313 466.0625,327.9063 465.9688,327.75 C465.8125,327.4844 465.5313,327.3438 465.2344,327.3438 C464.9375,327.3438 464.7344,327.4375 464.5156,327.75 L464.3438,327.6719 Z " fill="#000000"/><text fill="#000000" font-family="sans-serif" font-size="14" lengthAdjust="spacing" textLength="98" x="476" y="336.8467">ImagingStudy</text><line style="stroke:#34B1EB;stroke-width:0.5;" x1="448" x2="576" y1="348" y2="348"/><line style="stroke:#34B1EB;stroke-width:0.5;" x1="448" x2="576" y1="356" y2="356"/></g><!--MD5=[9dd4eaa2771a2ff8dbee15cc1e732cab]
class Patient--><g id="elem_Patient"><rect codeLine="8" fill="#A3E7FF" height="48" id="Patient" rx="2.5" ry="2.5" style="stroke:#34B1EB;stroke-width:0.5;" width="85" x="909.5" y="445"/><ellipse cx="924.5" cy="461" fill="#ADD1B2" rx="11" ry="11" style="stroke:#181818;stroke-width:1.0;"/><path d="M926.8438,456.6719 C925.9063,456.2344 925.3125,456.0938 924.4375,456.0938 C921.8125,456.0938 919.8125,458.1719 919.8125,460.8906 L919.8125,462.0156 C919.8125,464.5938 921.9219,466.4844 924.8125,466.4844 C926.0313,466.4844 927.1875,466.1875 927.9375,465.6406 C928.5156,465.2344 928.8438,464.7813 928.8438,464.3906 C928.8438,463.9375 928.4531,463.5469 927.9844,463.5469 C927.7656,463.5469 927.5625,463.625 927.375,463.8125 C926.9219,464.2969 926.9219,464.2969 926.7344,464.3906 C926.3125,464.6563 925.625,464.7813 924.8594,464.7813 C922.8125,464.7813 921.5156,463.6875 921.5156,461.9844 L921.5156,460.8906 C921.5156,459.1094 922.7656,457.7969 924.5,457.7969 C925.0781,457.7969 925.6875,457.9531 926.1563,458.2031 C926.6406,458.4844 926.8125,458.7031 926.9063,459.1094 C926.9688,459.5156 927,459.6406 927.1406,459.7656 C927.2813,459.9063 927.5156,460.0156 927.7344,460.0156 C928,460.0156 928.2656,459.875 928.4375,459.6563 C928.5469,459.5 928.5781,459.3125 928.5781,458.8906 L928.5781,457.4688 C928.5781,457.0313 928.5625,456.9063 928.4688,456.75 C928.3125,456.4844 928.0313,456.3438 927.7344,456.3438 C927.4375,456.3438 927.2344,456.4375 927.0156,456.75 L926.8438,456.6719 Z " fill="#000000"/><text fill="#000000" font-family="sans-serif" font-size="14" lengthAdjust="spacing" textLength="53" x="938.5" y="465.8467">Patient</text><line style="stroke:#34B1EB;stroke-width:0.5;" x1="910.5" x2="993.5" y1="477" y2="477"/><line style="stroke:#34B1EB;stroke-width:0.5;" x1="910.5" x2="993.5" y1="485" y2="485"/></g><!--MD5=[2edc31ff762501c9cec4b1b863028f54]
class Practitioner--><g id="elem_Practitioner"><rect codeLine="9" fill="#A3E7FF" height="48" id="Practitioner" rx="2.5" ry="2.5" style="stroke:#34B1EB;stroke-width:0.5;" width="118" x="764" y="316"/><ellipse cx="779" cy="332" fill="#ADD1B2" rx="11" ry="11" style="stroke:#181818;stroke-width:1.0;"/><path d="M781.3438,327.6719 C780.4063,327.2344 779.8125,327.0938 778.9375,327.0938 C776.3125,327.0938 774.3125,329.1719 774.3125,331.8906 L774.3125,333.0156 C774.3125,335.5938 776.4219,337.4844 779.3125,337.4844 C780.5313,337.4844 781.6875,337.1875 782.4375,336.6406 C783.0156,336.2344 783.3438,335.7813 783.3438,335.3906 C783.3438,334.9375 782.9531,334.5469 782.4844,334.5469 C782.2656,334.5469 782.0625,334.625 781.875,334.8125 C781.4219,335.2969 781.4219,335.2969 781.2344,335.3906 C780.8125,335.6563 780.125,335.7813 779.3594,335.7813 C777.3125,335.7813 776.0156,334.6875 776.0156,332.9844 L776.0156,331.8906 C776.0156,330.1094 777.2656,328.7969 779,328.7969 C779.5781,328.7969 780.1875,328.9531 780.6563,329.2031 C781.1406,329.4844 781.3125,329.7031 781.4063,330.1094 C781.4688,330.5156 781.5,330.6406 781.6406,330.7656 C781.7813,330.9063 782.0156,331.0156 782.2344,331.0156 C782.5,331.0156 782.7656,330.875 782.9375,330.6563 C783.0469,330.5 783.0781,330.3125 783.0781,329.8906 L783.0781,328.4688 C783.0781,328.0313 783.0625,327.9063 782.9688,327.75 C782.8125,327.4844 782.5313,327.3438 782.2344,327.3438 C781.9375,327.3438 781.7344,327.4375 781.5156,327.75 L781.3438,327.6719 Z " fill="#000000"/><text fill="#000000" font-family="sans-serif" font-size="14" lengthAdjust="spacing" textLength="86" x="793" y="336.8467">Practitioner</text><line style="stroke:#34B1EB;stroke-width:0.5;" x1="765" x2="881" y1="348" y2="348"/><line style="stroke:#34B1EB;stroke-width:0.5;" x1="765" x2="881" y1="356" y2="356"/></g><!--MD5=[20f13c6ddc75344e2e7497a3d42bf954]
link DoseSummary to Patient--><g id="link_DoseSummary_Patient"><path codeLine="11" d="M600.72,196.29 C609.687,204.975 618.636,215.166 625,226 C658.146,282.434 619.277,320.216 664,368 C727.761,436.1258 840.285,457.8458 904.172,464.7668 " fill="none" id="DoseSummary-to-Patient" style="stroke:#181818;stroke-width:1.0;"/><polygon fill="#181818" points="909.443,465.3162,900.9064,460.4043,904.47,464.7976,900.0767,468.3612,909.443,465.3162" style="stroke:#181818;stroke-width:1.0;"/><text fill="#000000" font-family="sans-serif" font-size="13" lengthAdjust="spacing" textLength="80" x="665" y="344.5669">subject[1..1]</text></g><!--MD5=[5aa97fc4799ec1163fe7e9084366329e]
link DoseSummary to Practitioner--><g id="link_DoseSummary_Practitioner"><path codeLine="12" d="M627.465,196.148 C641.309,204.33 655.131,214.306 666,226 C684.81,246.239 673.113,262.817 693,282 C711.298,299.65 735.959,312.331 758.884,321.182 " fill="none" id="DoseSummary-to-Practitioner" style="stroke:#181818;stroke-width:1.0;"/><polygon fill="#181818" points="763.747,323.013,756.7335,316.0984,759.0676,321.2513,753.9148,323.5854,763.747,323.013" style="stroke:#181818;stroke-width:1.0;"/><text fill="#000000" font-family="sans-serif" font-size="13" lengthAdjust="spacing" textLength="99" x="694" y="258.5669">performer[1..1]</text></g><!--MD5=[dc614404b2b16542ba2b7790b43c40d0]
link DoseSummary to ImagingStudy--><g id="link_DoseSummary_ImagingStudy"><path codeLine="13" d="M555.401,196.029 C551.55,205.434 547.386,216.106 544,226 C534.241,254.516 525.083,287.777 519.085,310.795 " fill="none" id="DoseSummary-to-ImagingStudy" style="stroke:#181818;stroke-width:1.0;"/><polygon fill="#181818" points="517.78,315.835,523.9093,308.1258,519.034,310.9948,516.165,306.1195,517.78,315.835" style="stroke:#181818;stroke-width:1.0;"/><text fill="#000000" font-family="sans-serif" font-size="13" lengthAdjust="spacing" textLength="75" x="545" y="258.5669">partOf[0..1]</text></g><!--MD5=[99ea0940e3c4aebce1e69577b7aa2f0f]
link DoseSummary to IrradiationEvent--><g id="link_DoseSummary_IrradiationEvent"><path codeLine="14" d="M471.163,196.018 C450.15,204.03 428.633,213.963 410,226 C375.728,248.14 344.081,282.797 323.617,307.894 " fill="none" id="DoseSummary-to-IrradiationEvent" style="stroke:#181818;stroke-width:1.0;"/><polygon fill="#181818" points="320.43,311.837,329.1993,307.3537,323.5738,307.949,322.9785,302.3236,320.43,311.837" style="stroke:#181818;stroke-width:1.0;"/><text fill="#000000" font-family="sans-serif" font-size="13" lengthAdjust="spacing" textLength="108" x="411" y="258.5669">hasMember[0..*]</text></g><!--MD5=[e86d7847e318e8f34d2c4a36526fc5ac]
link DoseSummary to Modality--><g id="link_DoseSummary_Modality"><path codeLine="15" d="M461.313,179.132 C401.617,187.222 326.474,201.435 263,226 C209.795,246.591 154.912,282.855 119.307,308.749 " fill="none" id="DoseSummary-to-Modality" style="stroke:#181818;stroke-width:1.0;"/><polygon fill="#181818" points="115.062,311.853,124.6878,309.7689,119.0979,308.9014,119.9653,303.3115,115.062,311.853" style="stroke:#181818;stroke-width:1.0;"/><text fill="#000000" font-family="sans-serif" font-size="13" lengthAdjust="spacing" textLength="76" x="264" y="258.5669">device[0..1]</text></g><!--MD5=[e5172867a045f57901173ed9ac949b2c]
link IrradiationEvent to Patient--><g id="link_IrradiationEvent_Patient"><path codeLine="16" d="M375.528,368.058 C422.115,383.825 483.396,402.9187 539,415 C669.383,443.3285 826.44,458.3585 903.935,464.5403 " fill="none" id="IrradiationEvent-to-Patient" style="stroke:#181818;stroke-width:1.0;"/><polygon fill="#181818" points="909.376,464.9702,900.7194,460.273,904.3916,464.5759,900.0886,468.2481,909.376,464.9702" style="stroke:#181818;stroke-width:1.0;"/><text fill="#000000" font-family="sans-serif" font-size="13" lengthAdjust="spacing" textLength="80" x="540" y="411.0669">subject[1..1]</text></g><!--MD5=[42cd951434895043a67d44797962ed85]
link PregnancyStatus to Patient--><g id="link_PregnancyStatus_Patient"><path codeLine="17" d="M913.662,282.41 C922.054,323.032 937.71,398.8235 946.187,439.8614 " fill="none" id="PregnancyStatus-to-Patient" style="stroke:#181818;stroke-width:1.0;"/><polygon fill="#181818" points="947.235,444.9308,949.3317,435.3077,946.2235,440.0342,941.4971,436.926,947.235,444.9308" style="stroke:#181818;stroke-width:1.0;"/><text fill="#000000" font-family="sans-serif" font-size="13" lengthAdjust="spacing" textLength="80" x="932" y="344.5669">subject[1..1]</text></g><!--MD5=[65f0e548677482f8fb1b1c4faee7f51e]
link Indication to Patient--><g id="link_Indication_Patient"><path codeLine="18" d="M1087.05,282.41 C1057.31,323.28 1001.665,399.7509 971.932,440.6097 " fill="none" id="Indication-to-Patient" style="stroke:#181818;stroke-width:1.0;"/><polygon fill="#181818" points="968.787,444.9308,977.3169,440.0073,971.729,440.8879,970.8483,435.3001,968.787,444.9308" style="stroke:#181818;stroke-width:1.0;"/><text fill="#000000" font-family="sans-serif" font-size="13" lengthAdjust="spacing" textLength="80" x="1066" y="344.5669">subject[1..1]</text></g><!--MD5=[149c7f4c8d89f172f29eababa3e381ed]
link RSR to Patient--><g id="link_RSR_Patient"><path codeLine="19" d="M1118.07,48.606 C1145.68,57.047 1172.56,70.782 1191,93 C1244.82,157.834 1228.28,200.736 1206,282 C1194.25,324.856 1187.62,337.82 1155,368 C1109.79,409.8345 1043.81,437.9354 999.465,453.4331 " fill="none" id="RSR-to-Patient" style="stroke:#181818;stroke-width:1.0;"/><polygon fill="#181818" points="994.705,455.077,1004.5178,455.9186,999.4309,453.4442,1001.9053,448.3572,994.705,455.077" style="stroke:#181818;stroke-width:1.0;"/><text fill="#000000" font-family="sans-serif" font-size="13" lengthAdjust="spacing" textLength="80" x="1222" y="258.5669">subject[1..1]</text></g><!--MD5=[6fcf94870099464672c6fa51c079bf27]
link RSR to DoseSummary--><g id="link_RSR_DoseSummary"><path codeLine="20" d="M891.885,57.826 C848.385,67.223 798.504,79.231 754,93 C713.14,105.642 668.566,123.13 633.188,137.931 " fill="none" id="RSR-to-DoseSummary" style="stroke:#181818;stroke-width:1.0;"/><polygon fill="#181818" points="628.479,139.907,638.3258,140.1107,633.0891,137.9713,635.2286,132.7346,628.479,139.907" style="stroke:#181818;stroke-width:1.0;"/><text fill="#000000" font-family="sans-serif" font-size="13" lengthAdjust="spacing" textLength="118" x="755" y="106.0669">section.entry[1..1]</text></g><!--MD5=[316a42c62ded7d4dccb830d3b8635bcf]
link RSR to PregnancyStatus--><g id="link_RSR_PregnancyStatus"><path codeLine="21" d="M958.208,63.288 C947.709,71.543 937.706,81.517 931,93 C907.96,132.449 904.922,186.426 905.764,220.502 " fill="none" id="RSR-to-PregnancyStatus" style="stroke:#181818;stroke-width:1.0;"/><polygon fill="#181818" points="905.93,225.795,909.6451,216.6737,905.7728,220.7975,901.6491,216.9252,905.93,225.795" style="stroke:#181818;stroke-width:1.0;"/><text fill="#000000" font-family="sans-serif" font-size="13" lengthAdjust="spacing" textLength="118" x="932" y="106.0669">section.entry[0..1]</text></g><!--MD5=[0969ec4e3c848c88f2833809a0d15d5a]
link RSR to Indication--><g id="link_RSR_Indication"><path codeLine="22" d="M1032.9,63.246 C1040.87,72.151 1049.01,82.473 1055,93 C1078.37,134.089 1092.97,187.173 1100.56,220.663 " fill="none" id="RSR-to-Indication" style="stroke:#181818;stroke-width:1.0;"/><polygon fill="#181818" points="1101.71,225.865,1103.6624,216.2116,1100.6253,220.9841,1095.8529,217.947,1101.71,225.865" style="stroke:#181818;stroke-width:1.0;"/><text fill="#000000" font-family="sans-serif" font-size="13" lengthAdjust="spacing" textLength="118" x="1064" y="106.0669">section.entry[0..1]</text></g><!--MD5=[3d77957fc25b19e9c1261d8b92f3f276]
@startuml
class "Radiation Summary Report" as RSR <<Composition>> #ffe6cc ##b86611
class "Radiation Dose Summary" as DoseSummary <<Observation>> #d5e8d4 ##green 
class "Pregnancy Status (IPS)" as PregnancyStatus <<Observation>> #fff2cc ##b3880c
class "Indication Observation" as Indication <<Observation>> #fff2cc ##b3880c
class "Modality Device" as Modality <<Device>> #34b1eb ##217aa3
class "Irradiation Event Summary" as IrradiationEvent <<Observation>> #d5e8d4 ##green 
class "ImagingStudy" as ImagingStudy #a3e7ff ##34b1eb
class "Patient" as Patient #a3e7ff ##34b1eb
class "Practitioner" as Practitioner #a3e7ff ##34b1eb

DoseSummary   -down-> Patient : subject[1..1]
DoseSummary   -down-> Practitioner : performer[1..1]
DoseSummary   -down-> ImagingStudy : partOf[0..1]
DoseSummary   -down-> IrradiationEvent : hasMember[0..*]
DoseSummary   -down-> Modality : device[0..1]
IrradiationEvent  -down-> Patient : subject[1..1]
PregnancyStatus  -down-> Patient : subject[1..1]
Indication  -down-> Patient : subject[1..1]
RSR -down-> Patient : subject[1..1]
RSR  -down-> DoseSummary  : section.entry[1..1]
RSR  -down-> PregnancyStatus : section.entry[0..1]
RSR  -down-> Indication : section.entry[0..1]
@enduml

PlantUML version 1.2022.13beta8(Unknown compile time)
(GPL source distribution)
Java Runtime: Java(TM) SE Runtime Environment
JVM: Java HotSpot(TM) 64-Bit Server VM
Default Encoding: UTF-8
Language: en
Country: US
--></g></svg>