<?xml version="1.0" encoding="UTF-8" standalone="no"?><svg xmlns="http://www.w3.org/2000/svg" xmlns:xlink="http://www.w3.org/1999/xlink" contentScriptType="application/ecmascript" contentStyleType="text/css" height="503px" preserveAspectRatio="none" style="width:1705px;height:503px;background:#FFFFFF;" version="1.1" viewBox="0 0 1705 503" width="1705px" zoomAndPan="magnify"><defs><filter height="300%" id="fmhzs5wxj0t1u" width="300%" x="-1" y="-1"><feGaussianBlur result="blurOut" stdDeviation="2.0"/><feColorMatrix in="blurOut" result="blurOut2" type="matrix" values="0 0 0 0 0 0 0 0 0 0 0 0 0 0 0 0 0 0 .4 0"/><feOffset dx="4.0" dy="4.0" in="blurOut2" result="blurOut3"/><feBlend in="SourceGraphic" in2="blurOut3" mode="normal"/></filter></defs><g><!--MD5=[f080a4a83dc4ce070f0494dc93b3f7ed]
cluster dose.summary--><polygon fill="#EEEEEE" filter="url(#fmhzs5wxj0t1u)" points="16,6,140,6,147,28.2969,358,28.2969,358,373,16,373,16,6" style="stroke:#000000;stroke-width:1.5;"/><line style="stroke:#000000;stroke-width:1.5;" x1="16" x2="147" y1="28.2969" y2="28.2969"/><text fill="#000000" font-family="sans-serif" font-size="14" font-weight="bold" lengthAdjust="spacing" textLength="118" x="20" y="20.9951">dose.summary</text><!--MD5=[3321b58844839326f4678c8335e74eff]
class dose.summary.CTDoseSummary--><rect codeLine="12" fill="#D5E8D4" filter="url(#fmhzs5wxj0t1u)" height="53.9375" id="dose.summary.CTDoseSummary" style="stroke:#008000;stroke-width:1.5;" width="201" x="140.5" y="41"/><ellipse cx="155.5" cy="59.9688" fill="#ADD1B2" rx="11" ry="11" style="stroke:#008000;stroke-width:1.0;"/><path d="M157.8438,55.6406 C156.9063,55.2031 156.3125,55.0625 155.4375,55.0625 C152.8125,55.0625 150.8125,57.1406 150.8125,59.8594 L150.8125,60.9844 C150.8125,63.5625 152.9219,65.4531 155.8125,65.4531 C157.0313,65.4531 158.1875,65.1563 158.9375,64.6094 C159.5156,64.2031 159.8438,63.75 159.8438,63.3594 C159.8438,62.9063 159.4531,62.5156 158.9844,62.5156 C158.7656,62.5156 158.5625,62.5938 158.375,62.7813 C157.9219,63.2656 157.9219,63.2656 157.7344,63.3594 C157.3125,63.625 156.625,63.75 155.8594,63.75 C153.8125,63.75 152.5156,62.6563 152.5156,60.9531 L152.5156,59.8594 C152.5156,58.0781 153.7656,56.7656 155.5,56.7656 C156.0781,56.7656 156.6875,56.9219 157.1563,57.1719 C157.6406,57.4531 157.8125,57.6719 157.9063,58.0781 C157.9688,58.4844 158,58.6094 158.1406,58.7344 C158.2813,58.875 158.5156,58.9844 158.7344,58.9844 C159,58.9844 159.2656,58.8438 159.4375,58.625 C159.5469,58.4688 159.5781,58.2813 159.5781,57.8594 L159.5781,56.4375 C159.5781,56 159.5625,55.875 159.4688,55.7188 C159.3125,55.4531 159.0313,55.3125 158.7344,55.3125 C158.4375,55.3125 158.2344,55.4063 158.0156,55.7188 L157.8438,55.6406 Z " fill="#000000"/><text fill="#000000" font-family="sans-serif" font-size="12" font-style="italic" lengthAdjust="spacing" textLength="86" x="211" y="57.1387">«Observation»</text><text fill="#000000" font-family="sans-serif" font-size="12" lengthAdjust="spacing" textLength="169" x="169.5" y="71.1074">CT Radiation Dose Summary</text><line style="stroke:#008000;stroke-width:1.5;" x1="141.5" x2="340.5" y1="78.9375" y2="78.9375"/><line style="stroke:#008000;stroke-width:1.5;" x1="141.5" x2="340.5" y1="86.9375" y2="86.9375"/><!--MD5=[78490c6cf6cd608483f6c7e22c36c382]
class dose.summary.XRayDoseSummary--><rect codeLine="13" fill="#D5E8D4" filter="url(#fmhzs5wxj0t1u)" height="53.9375" id="dose.summary.XRayDoseSummary" style="stroke:#008000;stroke-width:1.5;" width="220" x="77" y="172"/><ellipse cx="92" cy="190.9688" fill="#ADD1B2" rx="11" ry="11" style="stroke:#008000;stroke-width:1.0;"/><path d="M94.3438,186.6406 C93.4063,186.2031 92.8125,186.0625 91.9375,186.0625 C89.3125,186.0625 87.3125,188.1406 87.3125,190.8594 L87.3125,191.9844 C87.3125,194.5625 89.4219,196.4531 92.3125,196.4531 C93.5313,196.4531 94.6875,196.1563 95.4375,195.6094 C96.0156,195.2031 96.3438,194.75 96.3438,194.3594 C96.3438,193.9063 95.9531,193.5156 95.4844,193.5156 C95.2656,193.5156 95.0625,193.5938 94.875,193.7813 C94.4219,194.2656 94.4219,194.2656 94.2344,194.3594 C93.8125,194.625 93.125,194.75 92.3594,194.75 C90.3125,194.75 89.0156,193.6563 89.0156,191.9531 L89.0156,190.8594 C89.0156,189.0781 90.2656,187.7656 92,187.7656 C92.5781,187.7656 93.1875,187.9219 93.6563,188.1719 C94.1406,188.4531 94.3125,188.6719 94.4063,189.0781 C94.4688,189.4844 94.5,189.6094 94.6406,189.7344 C94.7813,189.875 95.0156,189.9844 95.2344,189.9844 C95.5,189.9844 95.7656,189.8438 95.9375,189.625 C96.0469,189.4688 96.0781,189.2813 96.0781,188.8594 L96.0781,187.4375 C96.0781,187 96.0625,186.875 95.9688,186.7188 C95.8125,186.4531 95.5313,186.3125 95.2344,186.3125 C94.9375,186.3125 94.7344,186.4063 94.5156,186.7188 L94.3438,186.6406 Z " fill="#000000"/><text fill="#000000" font-family="sans-serif" font-size="12" font-style="italic" lengthAdjust="spacing" textLength="86" x="157" y="188.1387">«Observation»</text><text fill="#000000" font-family="sans-serif" font-size="12" lengthAdjust="spacing" textLength="188" x="106" y="202.1074">X-Ray Radiation Dose Summary</text><line style="stroke:#008000;stroke-width:1.5;" x1="78" x2="296" y1="209.9375" y2="209.9375"/><line style="stroke:#008000;stroke-width:1.5;" x1="78" x2="296" y1="217.9375" y2="217.9375"/><!--MD5=[34342717f0cf63ac4ca2892487cd039b]
class dose.summary.NMDoseSummary--><rect codeLine="14" fill="#D5E8D4" filter="url(#fmhzs5wxj0t1u)" height="53.9375" id="dose.summary.NMDoseSummary" style="stroke:#008000;stroke-width:1.5;" width="310" x="32" y="303"/><ellipse cx="47" cy="321.9688" fill="#ADD1B2" rx="11" ry="11" style="stroke:#008000;stroke-width:1.0;"/><path d="M49.3438,317.6406 C48.4063,317.2031 47.8125,317.0625 46.9375,317.0625 C44.3125,317.0625 42.3125,319.1406 42.3125,321.8594 L42.3125,322.9844 C42.3125,325.5625 44.4219,327.4531 47.3125,327.4531 C48.5313,327.4531 49.6875,327.1563 50.4375,326.6094 C51.0156,326.2031 51.3438,325.75 51.3438,325.3594 C51.3438,324.9063 50.9531,324.5156 50.4844,324.5156 C50.2656,324.5156 50.0625,324.5938 49.875,324.7813 C49.4219,325.2656 49.4219,325.2656 49.2344,325.3594 C48.8125,325.625 48.125,325.75 47.3594,325.75 C45.3125,325.75 44.0156,324.6563 44.0156,322.9531 L44.0156,321.8594 C44.0156,320.0781 45.2656,318.7656 47,318.7656 C47.5781,318.7656 48.1875,318.9219 48.6563,319.1719 C49.1406,319.4531 49.3125,319.6719 49.4063,320.0781 C49.4688,320.4844 49.5,320.6094 49.6406,320.7344 C49.7813,320.875 50.0156,320.9844 50.2344,320.9844 C50.5,320.9844 50.7656,320.8438 50.9375,320.625 C51.0469,320.4688 51.0781,320.2813 51.0781,319.8594 L51.0781,318.4375 C51.0781,318 51.0625,317.875 50.9688,317.7188 C50.8125,317.4531 50.5313,317.3125 50.2344,317.3125 C49.9375,317.3125 49.7344,317.4063 49.5156,317.7188 L49.3438,317.6406 Z " fill="#000000"/><text fill="#000000" font-family="sans-serif" font-size="12" font-style="italic" lengthAdjust="spacing" textLength="86" x="157" y="319.1387">«Observation»</text><text fill="#000000" font-family="sans-serif" font-size="12" lengthAdjust="spacing" textLength="278" x="61" y="333.1074">Radiopharmaceutical Radiation Dose Summary</text><line style="stroke:#008000;stroke-width:1.5;" x1="33" x2="341" y1="340.9375" y2="340.9375"/><line style="stroke:#008000;stroke-width:1.5;" x1="33" x2="341" y1="348.9375" y2="348.9375"/><!--MD5=[8500a1c764844bee8b1b6bf6e386642d]
class RSR--><rect codeLine="1" fill="#FFE6CC" filter="url(#fmhzs5wxj0t1u)" height="53.9375" id="RSR" style="stroke:#B86611;stroke-width:1.5;" width="190" x="1234" y="41"/><ellipse cx="1249" cy="59.9688" fill="#ADD1B2" rx="11" ry="11" style="stroke:#B86611;stroke-width:1.0;"/><path d="M1251.3438,55.6406 C1250.4063,55.2031 1249.8125,55.0625 1248.9375,55.0625 C1246.3125,55.0625 1244.3125,57.1406 1244.3125,59.8594 L1244.3125,60.9844 C1244.3125,63.5625 1246.4219,65.4531 1249.3125,65.4531 C1250.5313,65.4531 1251.6875,65.1563 1252.4375,64.6094 C1253.0156,64.2031 1253.3438,63.75 1253.3438,63.3594 C1253.3438,62.9063 1252.9531,62.5156 1252.4844,62.5156 C1252.2656,62.5156 1252.0625,62.5938 1251.875,62.7813 C1251.4219,63.2656 1251.4219,63.2656 1251.2344,63.3594 C1250.8125,63.625 1250.125,63.75 1249.3594,63.75 C1247.3125,63.75 1246.0156,62.6563 1246.0156,60.9531 L1246.0156,59.8594 C1246.0156,58.0781 1247.2656,56.7656 1249,56.7656 C1249.5781,56.7656 1250.1875,56.9219 1250.6563,57.1719 C1251.1406,57.4531 1251.3125,57.6719 1251.4063,58.0781 C1251.4688,58.4844 1251.5,58.6094 1251.6406,58.7344 C1251.7813,58.875 1252.0156,58.9844 1252.2344,58.9844 C1252.5,58.9844 1252.7656,58.8438 1252.9375,58.625 C1253.0469,58.4688 1253.0781,58.2813 1253.0781,57.8594 L1253.0781,56.4375 C1253.0781,56 1253.0625,55.875 1252.9688,55.7188 C1252.8125,55.4531 1252.5313,55.3125 1252.2344,55.3125 C1251.9375,55.3125 1251.7344,55.4063 1251.5156,55.7188 L1251.3438,55.6406 Z " fill="#000000"/><text fill="#000000" font-family="sans-serif" font-size="12" font-style="italic" lengthAdjust="spacing" textLength="88" x="1298" y="57.1387">«Composition»</text><text fill="#000000" font-family="sans-serif" font-size="12" lengthAdjust="spacing" textLength="158" x="1263" y="71.1074">Radiation Summary Report</text><line style="stroke:#B86611;stroke-width:1.5;" x1="1235" x2="1423" y1="78.9375" y2="78.9375"/><line style="stroke:#B86611;stroke-width:1.5;" x1="1235" x2="1423" y1="86.9375" y2="86.9375"/><!--MD5=[b4859b39c0d8ee185000a2081ad3058c]
class DoseSummary--><rect codeLine="2" fill="#D5E8D4" filter="url(#fmhzs5wxj0t1u)" height="53.9375" id="DoseSummary" style="stroke:#008000;stroke-width:1.0;stroke-dasharray:7.0,7.0;" width="184" x="403" y="172"/><ellipse cx="418" cy="190.9688" fill="#A9DCDF" rx="11" ry="11" style="stroke:#008000;stroke-width:1.0;"/><path d="M420.0781,192.7813 L420.4688,193.7656 L420.0781,193.7656 C419.625,193.7656 419.5156,193.7813 419.3594,193.8906 C419.1094,194.0469 418.9531,194.3281 418.9531,194.625 C418.9531,194.8906 419.0938,195.1406 419.3125,195.2969 C419.4531,195.4219 419.6563,195.4688 420.0781,195.4688 L422.4375,195.4688 C422.7969,195.4688 423.0156,195.4375 423.1563,195.3438 C423.4063,195.2031 423.5625,194.9063 423.5625,194.625 C423.5625,194.3438 423.4219,194.0938 423.2031,193.9375 C423.0313,193.7969 422.875,193.7656 422.4063,193.7656 L419.0156,185.5625 L415.3438,185.5625 C414.8906,185.5625 414.7656,185.5781 414.6094,185.6719 C414.3594,185.8438 414.2031,186.125 414.2031,186.4063 C414.2031,186.6875 414.3438,186.9375 414.5625,187.1094 C414.7344,187.2188 414.9063,187.25 415.3438,187.25 L416.4219,187.25 L413.7813,193.7656 C413.3594,193.7656 413.2031,193.7813 413.0469,193.8906 C412.7969,194.0469 412.6406,194.3281 412.6406,194.625 C412.6406,195.1875 413.0156,195.4688 413.7656,195.4688 L416.0313,195.4688 C416.3906,195.4688 416.6094,195.4375 416.7344,195.3438 C417,195.2031 417.1406,194.9063 417.1406,194.625 C417.1406,194.3438 417.0156,194.0938 416.7969,193.9219 C416.625,193.7969 416.4844,193.7656 416.0313,193.7656 L415.6406,193.7656 L416.0313,192.7813 L420.0781,192.7813 Z M419.375,191.0781 L416.7031,191.0781 L418.0469,187.8125 L419.375,191.0781 Z " fill="#000000"/><text fill="#000000" font-family="sans-serif" font-size="12" font-style="italic" lengthAdjust="spacing" textLength="86" x="465" y="188.1387">«Observation»</text><text fill="#000000" font-family="sans-serif" font-size="12" font-style="italic" lengthAdjust="spacing" textLength="152" x="432" y="202.1074">Radiation Dose Summary</text><line style="stroke:#008000;stroke-width:1.0;stroke-dasharray:7.0,7.0;" x1="404" x2="586" y1="209.9375" y2="209.9375"/><line style="stroke:#008000;stroke-width:1.0;stroke-dasharray:7.0,7.0;" x1="404" x2="586" y1="217.9375" y2="217.9375"/><!--MD5=[b886da55dec2a43269367b4fd2ac0db2]
class PregnancyStatus--><rect codeLine="3" fill="#FFF2CC" filter="url(#fmhzs5wxj0t1u)" height="53.9375" id="PregnancyStatus" style="stroke:#B3880C;stroke-width:1.5;" width="166" x="1525" y="172"/><ellipse cx="1540" cy="190.9688" fill="#ADD1B2" rx="11" ry="11" style="stroke:#B3880C;stroke-width:1.0;"/><path d="M1542.3438,186.6406 C1541.4063,186.2031 1540.8125,186.0625 1539.9375,186.0625 C1537.3125,186.0625 1535.3125,188.1406 1535.3125,190.8594 L1535.3125,191.9844 C1535.3125,194.5625 1537.4219,196.4531 1540.3125,196.4531 C1541.5313,196.4531 1542.6875,196.1563 1543.4375,195.6094 C1544.0156,195.2031 1544.3438,194.75 1544.3438,194.3594 C1544.3438,193.9063 1543.9531,193.5156 1543.4844,193.5156 C1543.2656,193.5156 1543.0625,193.5938 1542.875,193.7813 C1542.4219,194.2656 1542.4219,194.2656 1542.2344,194.3594 C1541.8125,194.625 1541.125,194.75 1540.3594,194.75 C1538.3125,194.75 1537.0156,193.6563 1537.0156,191.9531 L1537.0156,190.8594 C1537.0156,189.0781 1538.2656,187.7656 1540,187.7656 C1540.5781,187.7656 1541.1875,187.9219 1541.6563,188.1719 C1542.1406,188.4531 1542.3125,188.6719 1542.4063,189.0781 C1542.4688,189.4844 1542.5,189.6094 1542.6406,189.7344 C1542.7813,189.875 1543.0156,189.9844 1543.2344,189.9844 C1543.5,189.9844 1543.7656,189.8438 1543.9375,189.625 C1544.0469,189.4688 1544.0781,189.2813 1544.0781,188.8594 L1544.0781,187.4375 C1544.0781,187 1544.0625,186.875 1543.9688,186.7188 C1543.8125,186.4531 1543.5313,186.3125 1543.2344,186.3125 C1542.9375,186.3125 1542.7344,186.4063 1542.5156,186.7188 L1542.3438,186.6406 Z " fill="#000000"/><text fill="#000000" font-family="sans-serif" font-size="12" font-style="italic" lengthAdjust="spacing" textLength="86" x="1578" y="188.1387">«Observation»</text><text fill="#000000" font-family="sans-serif" font-size="12" lengthAdjust="spacing" textLength="134" x="1554" y="202.1074">Pregnancy Status (IPS)</text><line style="stroke:#B3880C;stroke-width:1.5;" x1="1526" x2="1690" y1="209.9375" y2="209.9375"/><line style="stroke:#B3880C;stroke-width:1.5;" x1="1526" x2="1690" y1="217.9375" y2="217.9375"/><!--MD5=[d2b67ff075484ba4c80a9a46de77ac85]
class Indication--><rect codeLine="4" fill="#FFF2CC" filter="url(#fmhzs5wxj0t1u)" height="53.9375" id="Indication" style="stroke:#B3880C;stroke-width:1.5;" width="167" x="1241.5" y="172"/><ellipse cx="1256.5" cy="190.9688" fill="#ADD1B2" rx="11" ry="11" style="stroke:#B3880C;stroke-width:1.0;"/><path d="M1258.8438,186.6406 C1257.9063,186.2031 1257.3125,186.0625 1256.4375,186.0625 C1253.8125,186.0625 1251.8125,188.1406 1251.8125,190.8594 L1251.8125,191.9844 C1251.8125,194.5625 1253.9219,196.4531 1256.8125,196.4531 C1258.0313,196.4531 1259.1875,196.1563 1259.9375,195.6094 C1260.5156,195.2031 1260.8438,194.75 1260.8438,194.3594 C1260.8438,193.9063 1260.4531,193.5156 1259.9844,193.5156 C1259.7656,193.5156 1259.5625,193.5938 1259.375,193.7813 C1258.9219,194.2656 1258.9219,194.2656 1258.7344,194.3594 C1258.3125,194.625 1257.625,194.75 1256.8594,194.75 C1254.8125,194.75 1253.5156,193.6563 1253.5156,191.9531 L1253.5156,190.8594 C1253.5156,189.0781 1254.7656,187.7656 1256.5,187.7656 C1257.0781,187.7656 1257.6875,187.9219 1258.1563,188.1719 C1258.6406,188.4531 1258.8125,188.6719 1258.9063,189.0781 C1258.9688,189.4844 1259,189.6094 1259.1406,189.7344 C1259.2813,189.875 1259.5156,189.9844 1259.7344,189.9844 C1260,189.9844 1260.2656,189.8438 1260.4375,189.625 C1260.5469,189.4688 1260.5781,189.2813 1260.5781,188.8594 L1260.5781,187.4375 C1260.5781,187 1260.5625,186.875 1260.4688,186.7188 C1260.3125,186.4531 1260.0313,186.3125 1259.7344,186.3125 C1259.4375,186.3125 1259.2344,186.4063 1259.0156,186.7188 L1258.8438,186.6406 Z " fill="#000000"/><text fill="#000000" font-family="sans-serif" font-size="12" font-style="italic" lengthAdjust="spacing" textLength="86" x="1295" y="188.1387">«Observation»</text><text fill="#000000" font-family="sans-serif" font-size="12" lengthAdjust="spacing" textLength="135" x="1270.5" y="202.1074">Indication Observation</text><line style="stroke:#B3880C;stroke-width:1.5;" x1="1242.5" x2="1407.5" y1="209.9375" y2="209.9375"/><line style="stroke:#B3880C;stroke-width:1.5;" x1="1242.5" x2="1407.5" y1="217.9375" y2="217.9375"/><!--MD5=[b3492d3bf48f89c99185815a77ba40ad]
class Modality--><rect codeLine="5" fill="#34B1EB" filter="url(#fmhzs5wxj0t1u)" height="53.9375" id="Modality" style="stroke:#217AA3;stroke-width:1.5;" width="128" x="895" y="303"/><ellipse cx="910" cy="321.9688" fill="#ADD1B2" rx="11" ry="11" style="stroke:#217AA3;stroke-width:1.0;"/><path d="M912.3438,317.6406 C911.4063,317.2031 910.8125,317.0625 909.9375,317.0625 C907.3125,317.0625 905.3125,319.1406 905.3125,321.8594 L905.3125,322.9844 C905.3125,325.5625 907.4219,327.4531 910.3125,327.4531 C911.5313,327.4531 912.6875,327.1563 913.4375,326.6094 C914.0156,326.2031 914.3438,325.75 914.3438,325.3594 C914.3438,324.9063 913.9531,324.5156 913.4844,324.5156 C913.2656,324.5156 913.0625,324.5938 912.875,324.7813 C912.4219,325.2656 912.4219,325.2656 912.2344,325.3594 C911.8125,325.625 911.125,325.75 910.3594,325.75 C908.3125,325.75 907.0156,324.6563 907.0156,322.9531 L907.0156,321.8594 C907.0156,320.0781 908.2656,318.7656 910,318.7656 C910.5781,318.7656 911.1875,318.9219 911.6563,319.1719 C912.1406,319.4531 912.3125,319.6719 912.4063,320.0781 C912.4688,320.4844 912.5,320.6094 912.6406,320.7344 C912.7813,320.875 913.0156,320.9844 913.2344,320.9844 C913.5,320.9844 913.7656,320.8438 913.9375,320.625 C914.0469,320.4688 914.0781,320.2813 914.0781,319.8594 L914.0781,318.4375 C914.0781,318 914.0625,317.875 913.9688,317.7188 C913.8125,317.4531 913.5313,317.3125 913.2344,317.3125 C912.9375,317.3125 912.7344,317.4063 912.5156,317.7188 L912.3438,317.6406 Z " fill="#000000"/><text fill="#000000" font-family="sans-serif" font-size="12" font-style="italic" lengthAdjust="spacing" textLength="54" x="945" y="319.1387">«Device»</text><text fill="#000000" font-family="sans-serif" font-size="12" lengthAdjust="spacing" textLength="96" x="924" y="333.1074">Modality Device</text><line style="stroke:#217AA3;stroke-width:1.5;" x1="896" x2="1022" y1="340.9375" y2="340.9375"/><line style="stroke:#217AA3;stroke-width:1.5;" x1="896" x2="1022" y1="348.9375" y2="348.9375"/><!--MD5=[2bc0513b1b56fb56b1cce6737db1b7f7]
class IrradiationEvent--><rect codeLine="6" fill="#D5E8D4" filter="url(#fmhzs5wxj0t1u)" height="53.9375" id="IrradiationEvent" style="stroke:#008000;stroke-width:1.0;stroke-dasharray:7.0,7.0;" width="196" x="512" y="303"/><ellipse cx="527" cy="321.9688" fill="#A9DCDF" rx="11" ry="11" style="stroke:#008000;stroke-width:1.0;"/><path d="M529.0781,323.7813 L529.4688,324.7656 L529.0781,324.7656 C528.625,324.7656 528.5156,324.7813 528.3594,324.8906 C528.1094,325.0469 527.9531,325.3281 527.9531,325.625 C527.9531,325.8906 528.0938,326.1406 528.3125,326.2969 C528.4531,326.4219 528.6563,326.4688 529.0781,326.4688 L531.4375,326.4688 C531.7969,326.4688 532.0156,326.4375 532.1563,326.3438 C532.4063,326.2031 532.5625,325.9063 532.5625,325.625 C532.5625,325.3438 532.4219,325.0938 532.2031,324.9375 C532.0313,324.7969 531.875,324.7656 531.4063,324.7656 L528.0156,316.5625 L524.3438,316.5625 C523.8906,316.5625 523.7656,316.5781 523.6094,316.6719 C523.3594,316.8438 523.2031,317.125 523.2031,317.4063 C523.2031,317.6875 523.3438,317.9375 523.5625,318.1094 C523.7344,318.2188 523.9063,318.25 524.3438,318.25 L525.4219,318.25 L522.7813,324.7656 C522.3594,324.7656 522.2031,324.7813 522.0469,324.8906 C521.7969,325.0469 521.6406,325.3281 521.6406,325.625 C521.6406,326.1875 522.0156,326.4688 522.7656,326.4688 L525.0313,326.4688 C525.3906,326.4688 525.6094,326.4375 525.7344,326.3438 C526,326.2031 526.1406,325.9063 526.1406,325.625 C526.1406,325.3438 526.0156,325.0938 525.7969,324.9219 C525.625,324.7969 525.4844,324.7656 525.0313,324.7656 L524.6406,324.7656 L525.0313,323.7813 L529.0781,323.7813 Z M528.375,322.0781 L525.7031,322.0781 L527.0469,318.8125 L528.375,322.0781 Z " fill="#000000"/><text fill="#000000" font-family="sans-serif" font-size="12" font-style="italic" lengthAdjust="spacing" textLength="86" x="580" y="319.1387">«Observation»</text><text fill="#000000" font-family="sans-serif" font-size="12" font-style="italic" lengthAdjust="spacing" textLength="164" x="541" y="333.1074">Irradiation Event Summary</text><line style="stroke:#008000;stroke-width:1.0;stroke-dasharray:7.0,7.0;" x1="513" x2="707" y1="340.9375" y2="340.9375"/><line style="stroke:#008000;stroke-width:1.0;stroke-dasharray:7.0,7.0;" x1="513" x2="707" y1="348.9375" y2="348.9375"/><!--MD5=[cdf4272e165b522d48fe794a45f21d30]
class CTIrradiationEvent--><rect codeLine="7" fill="#D5E8D4" filter="url(#fmhzs5wxj0t1u)" height="53.9375" id="CTIrradiationEvent" style="stroke:#008000;stroke-width:1.5;" width="208" x="506" y="436"/><ellipse cx="521" cy="454.9688" fill="#ADD1B2" rx="11" ry="11" style="stroke:#008000;stroke-width:1.0;"/><path d="M523.3438,450.6406 C522.4063,450.2031 521.8125,450.0625 520.9375,450.0625 C518.3125,450.0625 516.3125,452.1406 516.3125,454.8594 L516.3125,455.9844 C516.3125,458.5625 518.4219,460.4531 521.3125,460.4531 C522.5313,460.4531 523.6875,460.1563 524.4375,459.6094 C525.0156,459.2031 525.3438,458.75 525.3438,458.3594 C525.3438,457.9063 524.9531,457.5156 524.4844,457.5156 C524.2656,457.5156 524.0625,457.5938 523.875,457.7813 C523.4219,458.2656 523.4219,458.2656 523.2344,458.3594 C522.8125,458.625 522.125,458.75 521.3594,458.75 C519.3125,458.75 518.0156,457.6563 518.0156,455.9531 L518.0156,454.8594 C518.0156,453.0781 519.2656,451.7656 521,451.7656 C521.5781,451.7656 522.1875,451.9219 522.6563,452.1719 C523.1406,452.4531 523.3125,452.6719 523.4063,453.0781 C523.4688,453.4844 523.5,453.6094 523.6406,453.7344 C523.7813,453.875 524.0156,453.9844 524.2344,453.9844 C524.5,453.9844 524.7656,453.8438 524.9375,453.625 C525.0469,453.4688 525.0781,453.2813 525.0781,452.8594 L525.0781,451.4375 C525.0781,451 525.0625,450.875 524.9688,450.7188 C524.8125,450.4531 524.5313,450.3125 524.2344,450.3125 C523.9375,450.3125 523.7344,450.4063 523.5156,450.7188 L523.3438,450.6406 Z " fill="#000000"/><text fill="#000000" font-family="sans-serif" font-size="12" font-style="italic" lengthAdjust="spacing" textLength="86" x="580" y="452.1387">«Observation»</text><text fill="#000000" font-family="sans-serif" font-size="12" lengthAdjust="spacing" textLength="176" x="535" y="466.1074">CT Irradiation Event Summary</text><line style="stroke:#008000;stroke-width:1.5;" x1="507" x2="713" y1="473.9375" y2="473.9375"/><line style="stroke:#008000;stroke-width:1.5;" x1="507" x2="713" y1="481.9375" y2="481.9375"/><!--MD5=[181c2720b9794936658bc7f80f7be5f7]
class ImagingStudy--><rect codeLine="8" fill="#A3E7FF" filter="url(#fmhzs5wxj0t1u)" height="48" id="ImagingStudy" style="stroke:#34B1EB;stroke-width:1.5;" width="113" x="1058.5" y="306"/><ellipse cx="1073.5" cy="322" fill="#ADD1B2" rx="11" ry="11" style="stroke:#34B1EB;stroke-width:1.0;"/><path d="M1075.8438,317.6719 C1074.9063,317.2344 1074.3125,317.0938 1073.4375,317.0938 C1070.8125,317.0938 1068.8125,319.1719 1068.8125,321.8906 L1068.8125,323.0156 C1068.8125,325.5938 1070.9219,327.4844 1073.8125,327.4844 C1075.0313,327.4844 1076.1875,327.1875 1076.9375,326.6406 C1077.5156,326.2344 1077.8438,325.7813 1077.8438,325.3906 C1077.8438,324.9375 1077.4531,324.5469 1076.9844,324.5469 C1076.7656,324.5469 1076.5625,324.625 1076.375,324.8125 C1075.9219,325.2969 1075.9219,325.2969 1075.7344,325.3906 C1075.3125,325.6563 1074.625,325.7813 1073.8594,325.7813 C1071.8125,325.7813 1070.5156,324.6875 1070.5156,322.9844 L1070.5156,321.8906 C1070.5156,320.1094 1071.7656,318.7969 1073.5,318.7969 C1074.0781,318.7969 1074.6875,318.9531 1075.1563,319.2031 C1075.6406,319.4844 1075.8125,319.7031 1075.9063,320.1094 C1075.9688,320.5156 1076,320.6406 1076.1406,320.7656 C1076.2813,320.9063 1076.5156,321.0156 1076.7344,321.0156 C1077,321.0156 1077.2656,320.875 1077.4375,320.6563 C1077.5469,320.5 1077.5781,320.3125 1077.5781,319.8906 L1077.5781,318.4688 C1077.5781,318.0313 1077.5625,317.9063 1077.4688,317.75 C1077.3125,317.4844 1077.0313,317.3438 1076.7344,317.3438 C1076.4375,317.3438 1076.2344,317.4375 1076.0156,317.75 L1075.8438,317.6719 Z " fill="#000000"/><text fill="#000000" font-family="sans-serif" font-size="12" lengthAdjust="spacing" textLength="81" x="1087.5" y="326.1543">ImagingStudy</text><line style="stroke:#34B1EB;stroke-width:1.5;" x1="1059.5" x2="1170.5" y1="338" y2="338"/><line style="stroke:#34B1EB;stroke-width:1.5;" x1="1059.5" x2="1170.5" y1="346" y2="346"/><!--MD5=[9dd4eaa2771a2ff8dbee15cc1e732cab]
class Patient--><rect codeLine="9" fill="#A3E7FF" filter="url(#fmhzs5wxj0t1u)" height="48" id="Patient" style="stroke:#34B1EB;stroke-width:1.5;" width="71" x="1235.5" y="439"/><ellipse cx="1250.5" cy="455" fill="#ADD1B2" rx="11" ry="11" style="stroke:#34B1EB;stroke-width:1.0;"/><path d="M1252.8438,450.6719 C1251.9063,450.2344 1251.3125,450.0938 1250.4375,450.0938 C1247.8125,450.0938 1245.8125,452.1719 1245.8125,454.8906 L1245.8125,456.0156 C1245.8125,458.5938 1247.9219,460.4844 1250.8125,460.4844 C1252.0313,460.4844 1253.1875,460.1875 1253.9375,459.6406 C1254.5156,459.2344 1254.8438,458.7813 1254.8438,458.3906 C1254.8438,457.9375 1254.4531,457.5469 1253.9844,457.5469 C1253.7656,457.5469 1253.5625,457.625 1253.375,457.8125 C1252.9219,458.2969 1252.9219,458.2969 1252.7344,458.3906 C1252.3125,458.6563 1251.625,458.7813 1250.8594,458.7813 C1248.8125,458.7813 1247.5156,457.6875 1247.5156,455.9844 L1247.5156,454.8906 C1247.5156,453.1094 1248.7656,451.7969 1250.5,451.7969 C1251.0781,451.7969 1251.6875,451.9531 1252.1563,452.2031 C1252.6406,452.4844 1252.8125,452.7031 1252.9063,453.1094 C1252.9688,453.5156 1253,453.6406 1253.1406,453.7656 C1253.2813,453.9063 1253.5156,454.0156 1253.7344,454.0156 C1254,454.0156 1254.2656,453.875 1254.4375,453.6563 C1254.5469,453.5 1254.5781,453.3125 1254.5781,452.8906 L1254.5781,451.4688 C1254.5781,451.0313 1254.5625,450.9063 1254.4688,450.75 C1254.3125,450.4844 1254.0313,450.3438 1253.7344,450.3438 C1253.4375,450.3438 1253.2344,450.4375 1253.0156,450.75 L1252.8438,450.6719 Z " fill="#000000"/><text fill="#000000" font-family="sans-serif" font-size="12" lengthAdjust="spacing" textLength="39" x="1264.5" y="459.1543">Patient</text><line style="stroke:#34B1EB;stroke-width:1.5;" x1="1236.5" x2="1305.5" y1="471" y2="471"/><line style="stroke:#34B1EB;stroke-width:1.5;" x1="1236.5" x2="1305.5" y1="479" y2="479"/><!--MD5=[2edc31ff762501c9cec4b1b863028f54]
class Practitioner--><rect codeLine="10" fill="#A3E7FF" filter="url(#fmhzs5wxj0t1u)" height="48" id="Practitioner" style="stroke:#34B1EB;stroke-width:1.5;" width="99" x="377.5" y="306"/><ellipse cx="392.5" cy="322" fill="#ADD1B2" rx="11" ry="11" style="stroke:#34B1EB;stroke-width:1.0;"/><path d="M394.8438,317.6719 C393.9063,317.2344 393.3125,317.0938 392.4375,317.0938 C389.8125,317.0938 387.8125,319.1719 387.8125,321.8906 L387.8125,323.0156 C387.8125,325.5938 389.9219,327.4844 392.8125,327.4844 C394.0313,327.4844 395.1875,327.1875 395.9375,326.6406 C396.5156,326.2344 396.8438,325.7813 396.8438,325.3906 C396.8438,324.9375 396.4531,324.5469 395.9844,324.5469 C395.7656,324.5469 395.5625,324.625 395.375,324.8125 C394.9219,325.2969 394.9219,325.2969 394.7344,325.3906 C394.3125,325.6563 393.625,325.7813 392.8594,325.7813 C390.8125,325.7813 389.5156,324.6875 389.5156,322.9844 L389.5156,321.8906 C389.5156,320.1094 390.7656,318.7969 392.5,318.7969 C393.0781,318.7969 393.6875,318.9531 394.1563,319.2031 C394.6406,319.4844 394.8125,319.7031 394.9063,320.1094 C394.9688,320.5156 395,320.6406 395.1406,320.7656 C395.2813,320.9063 395.5156,321.0156 395.7344,321.0156 C396,321.0156 396.2656,320.875 396.4375,320.6563 C396.5469,320.5 396.5781,320.3125 396.5781,319.8906 L396.5781,318.4688 C396.5781,318.0313 396.5625,317.9063 396.4688,317.75 C396.3125,317.4844 396.0313,317.3438 395.7344,317.3438 C395.4375,317.3438 395.2344,317.4375 395.0156,317.75 L394.8438,317.6719 Z " fill="#000000"/><text fill="#000000" font-family="sans-serif" font-size="12" lengthAdjust="spacing" textLength="67" x="406.5" y="326.1543">Practitioner</text><line style="stroke:#34B1EB;stroke-width:1.5;" x1="378.5" x2="475.5" y1="338" y2="338"/><line style="stroke:#34B1EB;stroke-width:1.5;" x1="378.5" x2="475.5" y1="346" y2="346"/><!--MD5=[f0215543d22da02e3267902cf9025bcc]
reverse link DoseSummary to dose.summary.CTDoseSummary--><path codeLine="15" d="M438.914,161.094 C419.381,148.918 397.076,135.752 376,125 C354.866,114.219 331.162,103.843 309.583,95.014 " fill="none" id="DoseSummary-backto-dose.summary.CTDoseSummary" style="stroke:#A80036;stroke-width:1.0;"/><polygon fill="none" points="442.816,155.28,455.959,171.901,435.319,167.103,442.816,155.28" style="stroke:#A80036;stroke-width:1.0;"/><!--MD5=[3da07077a38ca016e3e123b89d5354bb]
link dose.summary.CTDoseSummary to DoseSummary--><!--MD5=[d96e7abd971669cec96ef33d690e45a3]
reverse link DoseSummary to dose.summary.XRayDoseSummary--><path codeLine="16" d="M382.416,199 C353.972,199 325.529,199 297.086,199 " fill="none" id="DoseSummary-backto-dose.summary.XRayDoseSummary" style="stroke:#A80036;stroke-width:1.0;"/><polygon fill="none" points="382.614,192,402.614,199,382.614,206,382.614,192" style="stroke:#A80036;stroke-width:1.0;"/><!--MD5=[0999b52088d0792c9a0c4bda60c260eb]
link dose.summary.XRayDoseSummary to DoseSummary--><!--MD5=[50b3d5891b03b15484b416ab99a26d30]
reverse link DoseSummary to dose.summary.NMDoseSummary--><path codeLine="17" d="M414.028,233.914 C362.469,255.508 296.7,283.054 249.236,302.934 " fill="none" id="DoseSummary-backto-dose.summary.NMDoseSummary" style="stroke:#A80036;stroke-width:1.0;"/><polygon fill="none" points="411.52,227.375,432.672,226.105,416.928,240.288,411.52,227.375" style="stroke:#A80036;stroke-width:1.0;"/><!--MD5=[1dd992191a8268a0385121420002f4cf]
link dose.summary.NMDoseSummary to DoseSummary--><!--MD5=[5ceff636f59d1e40a3a1daf9cfdeb240]
link dose.summary.CTDoseSummary to Modality--><!--MD5=[21b45a19cf988e49616cbe1251817fed]
link dose.summary.CTDoseSummary to ImagingStudy--><!--MD5=[2d4eaf1f42465e8bc57e81c01ab95590]
link dose.summary.CTDoseSummary to Practitioner--><!--MD5=[746421d59c1246d4bc1d6d4cc50f89fb]
link dose.summary.CTDoseSummary to Patient--><!--MD5=[1fdfeea2e074d0acfc28524c5d0393d5]
link dose.summary.CTDoseSummary to dose.summary.XRayDoseSummary--><!--MD5=[0f0f4076ce5a57de481578ab3242a518]
link dose.summary.XRayDoseSummary to dose.summary.NMDoseSummary--><!--MD5=[81153396f2ba8e7fa5fac7e4db6b0ed7]
reverse link IrradiationEvent to CTIrradiationEvent--><path codeLine="29" d="M610,377.48 C610,397.0809 610,419.1706 610,435.8504 " fill="none" id="IrradiationEvent-backto-CTIrradiationEvent" style="stroke:#A80036;stroke-width:1.0;"/><polygon fill="none" points="603,377.195,610,357.195,617,377.195,603,377.195" style="stroke:#A80036;stroke-width:1.0;"/><!--MD5=[20f13c6ddc75344e2e7497a3d42bf954]
link DoseSummary to Patient--><path codeLine="30" d="M587.306,216.733 C619.255,225.237 654.234,237.77 683,256 C746.007,295.929 729.695,344.952 795,381 C870.072,422.4397 1129.17,449.3775 1230.2,458.5257 " fill="none" id="DoseSummary-to-Patient" style="stroke:#A80036;stroke-width:1.0;"/><polygon fill="#A80036" points="1235.47,458.9996,1226.8597,454.2181,1230.4897,458.5567,1226.1511,462.1867,1235.47,458.9996" style="stroke:#A80036;stroke-width:1.0;"/><text fill="#000000" font-family="sans-serif" font-size="13" lengthAdjust="spacing" textLength="80" x="796" y="334.5669">subject[1..1]</text><!--MD5=[5aa97fc4799ec1163fe7e9084366329e]
link DoseSummary to Practitioner--><path codeLine="31" d="M467.536,226.283 C459.623,235.087 451.62,245.381 446,256 C438.635,269.917 433.997,286.864 431.149,300.925 " fill="none" id="DoseSummary-to-Practitioner" style="stroke:#A80036;stroke-width:1.0;"/><polygon fill="#A80036" points="430.179,305.964,435.809,297.883,431.1247,301.0542,427.9534,296.3699,430.179,305.964" style="stroke:#A80036;stroke-width:1.0;"/><text fill="#000000" font-family="sans-serif" font-size="13" lengthAdjust="spacing" textLength="99" x="447" y="269.0669">performer[1..1]</text><!--MD5=[dc614404b2b16542ba2b7790b43c40d0]
link DoseSummary to ImagingStudy--><path codeLine="32" d="M587.348,211.487 C661.421,221.344 767.867,236.957 860,256 C940.971,272.736 960.879,278.996 1040,303 C1044.36,304.322 1048.84,305.736 1053.34,307.196 " fill="none" id="DoseSummary-to-ImagingStudy" style="stroke:#A80036;stroke-width:1.0;"/><polygon fill="#A80036" points="1058.23,308.797,1050.9053,302.213,1053.4744,307.2528,1048.4346,309.8219,1058.23,308.797" style="stroke:#A80036;stroke-width:1.0;"/><text fill="#000000" font-family="sans-serif" font-size="13" lengthAdjust="spacing" textLength="75" x="937" y="269.0669">partOf[0..1]</text><!--MD5=[99ea0940e3c4aebce1e69577b7aa2f0f]
link DoseSummary to IrradiationEvent--><path codeLine="33" d="M522.366,226.216 C531.67,235.428 541.989,245.982 551,256 C563.247,269.614 576.11,285.343 586.69,298.706 " fill="none" id="DoseSummary-to-IrradiationEvent" style="stroke:#A80036;stroke-width:1.0;"/><polygon fill="#A80036" points="589.896,302.772,587.464,293.2281,586.8,298.8459,581.1822,298.1818,589.896,302.772" style="stroke:#A80036;stroke-width:1.0;"/><text fill="#000000" font-family="sans-serif" font-size="13" lengthAdjust="spacing" textLength="108" x="566" y="269.0669">hasMember[0..*]</text><!--MD5=[e86d7847e318e8f34d2c4a36526fc5ac]
link DoseSummary to Modality--><path codeLine="34" d="M587.243,215.941 C634.25,225.308 691.91,238.727 742,256 C758.728,261.768 761.507,266.591 778,273 C798.739,281.059 848.107,296.239 890.053,308.764 " fill="none" id="DoseSummary-to-Modality" style="stroke:#A80036;stroke-width:1.0;"/><polygon fill="#A80036" points="894.868,310.199,887.3856,303.7949,890.0763,308.7708,885.1004,311.4615,894.868,310.199" style="stroke:#A80036;stroke-width:1.0;"/><text fill="#000000" font-family="sans-serif" font-size="13" lengthAdjust="spacing" textLength="76" x="779" y="269.0669">device[0..1]</text><!--MD5=[e5172867a045f57901173ed9ac949b2c]
link IrradiationEvent to Patient--><path codeLine="35" d="M623.581,357.154 C633.892,374.138 649.745,395.0794 670,406 C767.137,458.3724 1111.25,462.4737 1230.19,462.2819 " fill="none" id="IrradiationEvent-to-Patient" style="stroke:#A80036;stroke-width:1.0;"/><polygon fill="#A80036" points="1235.35,462.2707,1226.35,458.2707,1230.35,462.2707,1226.35,466.2707,1235.35,462.2707" style="stroke:#A80036;stroke-width:1.0;"/><text fill="#000000" font-family="sans-serif" font-size="13" lengthAdjust="spacing" textLength="80" x="671" y="402.0669">subject[1..1]</text><!--MD5=[42cd951434895043a67d44797962ed85]
link PregnancyStatus to Patient--><path codeLine="36" d="M1601.48,226.329 C1589.12,270.515 1558,359.326 1498,406 C1443.44,448.4417 1361.02,459.1983 1311.95,461.6437 " fill="none" id="PregnancyStatus-to-Patient" style="stroke:#A80036;stroke-width:1.0;"/><polygon fill="#A80036" points="1306.72,461.879,1315.8934,465.4634,1311.7148,461.6504,1315.5277,457.4718,1306.72,461.879" style="stroke:#A80036;stroke-width:1.0;"/><text fill="#000000" font-family="sans-serif" font-size="13" lengthAdjust="spacing" textLength="80" x="1573" y="334.5669">subject[1..1]</text><!--MD5=[65f0e548677482f8fb1b1c4faee7f51e]
link Indication to Patient--><path codeLine="37" d="M1319.62,226.079 C1309.44,275.508 1287.4,382.449 1276.85,433.6116 " fill="none" id="Indication-to-Patient" style="stroke:#A80036;stroke-width:1.0;"/><polygon fill="#A80036" points="1275.81,438.6809,1281.5437,430.6731,1276.8188,433.7837,1273.7082,429.0589,1275.81,438.6809" style="stroke:#A80036;stroke-width:1.0;"/><text fill="#000000" font-family="sans-serif" font-size="13" lengthAdjust="spacing" textLength="80" x="1304" y="334.5669">subject[1..1]</text><!--MD5=[149c7f4c8d89f172f29eababa3e381ed]
link RSR to Patient--><path codeLine="38" d="M1417.33,95.008 C1430.29,102.624 1441.96,112.42 1450,125 C1454.07,131.366 1450.88,134.496 1450,142 C1437.25,250.454 1455.5,291.456 1393,381 C1372.71,410.0681 1338.33,431.5008 1311.23,444.9923 " fill="none" id="RSR-to-Patient" style="stroke:#A80036;stroke-width:1.0;"/><polygon fill="#A80036" points="1306.6,447.254,1316.442,446.8877,1311.0904,445.0548,1312.9233,439.7031,1306.6,447.254" style="stroke:#A80036;stroke-width:1.0;"/><text fill="#000000" font-family="sans-serif" font-size="13" lengthAdjust="spacing" textLength="80" x="1442" y="269.0669">subject[1..1]</text><!--MD5=[6fcf94870099464672c6fa51c079bf27]
link RSR to DoseSummary--><path codeLine="39" d="M1233.74,83.735 C1073.91,108.456 753.494,158.017 592.312,182.948 " fill="none" id="RSR-to-DoseSummary" style="stroke:#A80036;stroke-width:1.0;"/><polygon fill="#A80036" points="587.118,183.752,596.6236,186.3293,592.0592,182.9877,595.4008,178.4233,587.118,183.752" style="stroke:#A80036;stroke-width:1.0;"/><text fill="#000000" font-family="sans-serif" font-size="13" lengthAdjust="spacing" textLength="118" x="963" y="138.0669">section.entry[1..1]</text><!--MD5=[163812048677e042ac37f8d6c7d3b62e]
reverse link dose.summary.CTDoseSummary to RSR--><!--MD5=[316a42c62ded7d4dccb830d3b8635bcf]
link RSR to PregnancyStatus--><path codeLine="41" d="M1422.42,95.043 C1447.5,103.349 1474.24,113.435 1498,125 C1523.01,137.173 1549.03,154.212 1569.48,168.766 " fill="none" id="RSR-to-PregnancyStatus" style="stroke:#A80036;stroke-width:1.0;"/><polygon fill="#A80036" points="1573.76,171.831,1568.7769,163.3358,1569.6966,168.9174,1564.1151,169.8372,1573.76,171.831" style="stroke:#A80036;stroke-width:1.0;"/><text fill="#000000" font-family="sans-serif" font-size="13" lengthAdjust="spacing" textLength="118" x="1527" y="138.0669">section.entry[0..1]</text><!--MD5=[0969ec4e3c848c88f2833809a0d15d5a]
link RSR to Indication--><path codeLine="42" d="M1327.38,95.201 C1326.86,104.596 1326.33,115.269 1326,125 C1325.54,138.755 1325.29,153.975 1325.15,166.943 " fill="none" id="RSR-to-Indication" style="stroke:#A80036;stroke-width:1.0;"/><polygon fill="#A80036" points="1325.11,171.979,1329.1947,163.0171,1325.1571,166.9792,1321.195,162.9417,1325.11,171.979" style="stroke:#A80036;stroke-width:1.0;"/><text fill="#000000" font-family="sans-serif" font-size="13" lengthAdjust="spacing" textLength="118" x="1327" y="138.0669">section.entry[0..1]</text><!--MD5=[bb6a51c00f61173bf7d7e12826431f7a]
@startuml
class "Radiation Summary Report" as RSR <<Composition>> #ffe6cc ##b86611
abstract class "Radiation Dose Summary" as DoseSummary <<Observation>> #d5e8d4 ##[dashed]green 
class "Pregnancy Status (IPS)" as PregnancyStatus <<Observation>> #fff2cc ##b3880c
class "Indication Observation" as Indication <<Observation>> #fff2cc ##b3880c
class "Modality Device" as Modality <<Device>> #34b1eb ##217aa3
abstract class "Irradiation Event Summary" as IrradiationEvent <<Observation>> #d5e8d4 ##[dashed]green 
class "CT Irradiation Event Summary" as CTIrradiationEvent <<Observation>> #d5e8d4 ##green
class "ImagingStudy" as ImagingStudy #a3e7ff ##34b1eb
class "Patient" as Patient #a3e7ff ##34b1eb
class "Practitioner" as Practitioner #a3e7ff ##34b1eb
namespace dose.summary #EEEEEE { 
   class "CT Radiation Dose Summary" as CTDoseSummary <<Observation>> #d5e8d4 ##green
   class "X-Ray Radiation Dose Summary"  as XRayDoseSummary <<Observation>> #d5e8d4 ##green
   class "Radiopharmaceutical Radiation Dose Summary"  as NMDoseSummary <<Observation>> #d5e8d4 ##green
   .DoseSummary <|- - CTDoseSummary
   .DoseSummary <|- - XRayDoseSummary
   .DoseSummary <|- - NMDoseSummary
   CTDoseSummary  -[hidden]down-> .Modality
   CTDoseSummary  -[hidden]down-> .ImagingStudy
   CTDoseSummary  -[hidden]down-> .Practitioner
   CTDoseSummary  -[hidden]down-> .Patient
   CTDoseSummary  -[hidden]down-> XRayDoseSummary
   XRayDoseSummary -[hidden]down-> NMDoseSummary
   CTDoseSummary -[hidden]down-> .DoseSummary
   NMDoseSummary -[hidden]down-> .DoseSummary
   XRayDoseSummary-[hidden]down-> .DoseSummary
}

IrradiationEvent <|- - CTIrradiationEvent
DoseSummary   -down-> Patient : subject[1..1]
DoseSummary   -down-> Practitioner : performer[1..1]
DoseSummary   -down-> ImagingStudy : partOf[0..1]
DoseSummary   -down-> IrradiationEvent : hasMember[0..*]
DoseSummary   -down-> Modality : device[0..1]
IrradiationEvent  -down-> Patient : subject[1..1]
PregnancyStatus  -down-> Patient : subject[1..1]
Indication  -down-> Patient : subject[1..1]
RSR -down-> Patient : subject[1..1]
RSR  -down-> DoseSummary  : section.entry[1..1]
RSR  -[hidden]left-> dose.summary.CTDoseSummary
RSR  -down-> PregnancyStatus : section.entry[0..1]
RSR  -down-> Indication : section.entry[0..1]
@enduml

PlantUML version 1.2021.9beta2(Unknown compile time)
(GPL source distribution)
Java Runtime: Java(TM) SE Runtime Environment
JVM: Java HotSpot(TM) 64-Bit Server VM
Default Encoding: UTF-8
Language: en
Country: US
--></g></svg>