<?xml version="1.0" encoding="UTF-8" standalone="no"?><svg xmlns="http://www.w3.org/2000/svg" xmlns:xlink="http://www.w3.org/1999/xlink" contentScriptType="application/ecmascript" contentStyleType="text/css" height="880px" preserveAspectRatio="none" style="width:1115px;height:880px;background:#FFFFFF;" version="1.1" viewBox="0 0 1115 880" width="1115px" zoomAndPan="magnify"><defs><filter height="300%" id="f1knyqceb0kf1s" width="300%" x="-1" y="-1"><feGaussianBlur result="blurOut" stdDeviation="2.0"/><feColorMatrix in="blurOut" result="blurOut2" type="matrix" values="0 0 0 0 0 0 0 0 0 0 0 0 0 0 0 0 0 0 .4 0"/><feOffset dx="4.0" dy="4.0" in="blurOut2" result="blurOut3"/><feBlend in="SourceGraphic" in2="blurOut3" mode="normal"/></filter></defs><g><rect fill="#B3FFD7" filter="url(#f1knyqceb0kf1s)" height="87.3984" style="stroke:#000000;stroke-width:1.0;" width="10" x="273.5" y="227.9609"/><rect fill="#B3FFD7" filter="url(#f1knyqceb0kf1s)" height="29.1328" style="stroke:#000000;stroke-width:1.0;" width="10" x="531.5" y="257.0938"/><rect fill="#B3FFD7" filter="url(#f1knyqceb0kf1s)" height="393.7266" style="stroke:#000000;stroke-width:1.0;" width="10" x="531.5" y="315.3594"/><rect fill="#B3FFD7" filter="url(#f1knyqceb0kf1s)" height="28" style="stroke:#000000;stroke-width:1.0;" width="10" x="536.5" y="600.6875"/><rect fill="#B3FFD7" filter="url(#f1knyqceb0kf1s)" height="29.1328" style="stroke:#000000;stroke-width:1.0;" width="10" x="790.5" y="344.4922"/><rect fill="#B3FFD7" filter="url(#f1knyqceb0kf1s)" height="29.1328" style="stroke:#000000;stroke-width:1.0;" width="10" x="790.5" y="402.7578"/><rect fill="#B3FFD7" filter="url(#f1knyqceb0kf1s)" height="29.1328" style="stroke:#000000;stroke-width:1.0;" width="10" x="790.5" y="461.0234"/><rect fill="#B3FFD7" filter="url(#f1knyqceb0kf1s)" height="29.1328" style="stroke:#000000;stroke-width:1.0;" width="10" x="790.5" y="519.2891"/><rect fill="#B3FFD7" filter="url(#f1knyqceb0kf1s)" height="29.1328" style="stroke:#000000;stroke-width:1.0;" width="10" x="790.5" y="679.9531"/><rect fill="#B3FFD7" filter="url(#f1knyqceb0kf1s)" height="29.1328" style="stroke:#000000;stroke-width:1.0;" width="10" x="790.5" y="753.3516"/><rect fill="#B3FFD7" filter="url(#f1knyqceb0kf1s)" height="29.1328" style="stroke:#000000;stroke-width:1.0;" width="10" x="790.5" y="826.75"/><line style="stroke:#000000;stroke-width:1.0;stroke-dasharray:5.0,5.0;" x1="78" x2="78" y1="88.2969" y2="873.8828"/><line style="stroke:#000000;stroke-width:1.0;stroke-dasharray:5.0,5.0;" x1="278" x2="278" y1="88.2969" y2="873.8828"/><line style="stroke:#000000;stroke-width:1.0;stroke-dasharray:5.0,5.0;" x1="536" x2="536" y1="88.2969" y2="873.8828"/><line style="stroke:#000000;stroke-width:1.0;stroke-dasharray:5.0,5.0;" x1="795" x2="795" y1="88.2969" y2="873.8828"/><line style="stroke:#000000;stroke-width:1.0;stroke-dasharray:5.0,5.0;" x1="1054.5" x2="1054.5" y1="88.2969" y2="873.8828"/><text fill="#000000" font-family="sans-serif" font-size="14" lengthAdjust="spacing" textLength="53" x="49" y="84.9951">Patient</text><ellipse cx="78.5" cy="15" fill="#C9F4FF" filter="url(#f1knyqceb0kf1s)" rx="8" ry="8" style="stroke:#000000;stroke-width:2.0;"/><path d="M78.5,23 L78.5,50 M65.5,31 L91.5,31 M78.5,50 L65.5,65 M78.5,50 L91.5,65 " fill="none" filter="url(#f1knyqceb0kf1s)" style="stroke:#000000;stroke-width:2.0;"/><rect fill="#C9F4FF" filter="url(#f1knyqceb0kf1s)" height="30.2969" style="stroke:#000000;stroke-width:1.5;" width="153" x="200" y="53"/><text fill="#000000" font-family="sans-serif" font-size="14" lengthAdjust="spacing" textLength="139" x="207" y="72.9951">Irradiating Modality</text><rect fill="#C9F4FF" filter="url(#f1knyqceb0kf1s)" height="30.2969" style="stroke:#000000;stroke-width:1.5;" width="97" x="486" y="53"/><text fill="#000000" font-family="sans-serif" font-size="14" lengthAdjust="spacing" textLength="83" x="493" y="72.9951">RDSP Actor</text><rect fill="#C9F4FF" filter="url(#f1knyqceb0kf1s)" height="30.2969" style="stroke:#000000;stroke-width:1.5;" width="97" x="745" y="53"/><text fill="#000000" font-family="sans-serif" font-size="14" lengthAdjust="spacing" textLength="83" x="752" y="72.9951">FHIR Server</text><rect fill="#C9F4FF" filter="url(#f1knyqceb0kf1s)" height="30.2969" style="stroke:#000000;stroke-width:1.5;" width="98" x="1003.5" y="53"/><text fill="#000000" font-family="sans-serif" font-size="14" lengthAdjust="spacing" textLength="84" x="1010.5" y="72.9951">RDSC Actor</text><rect fill="#B3FFD7" filter="url(#f1knyqceb0kf1s)" height="87.3984" style="stroke:#000000;stroke-width:1.0;" width="10" x="273.5" y="227.9609"/><rect fill="#B3FFD7" filter="url(#f1knyqceb0kf1s)" height="29.1328" style="stroke:#000000;stroke-width:1.0;" width="10" x="531.5" y="257.0938"/><rect fill="#B3FFD7" filter="url(#f1knyqceb0kf1s)" height="393.7266" style="stroke:#000000;stroke-width:1.0;" width="10" x="531.5" y="315.3594"/><rect fill="#B3FFD7" filter="url(#f1knyqceb0kf1s)" height="28" style="stroke:#000000;stroke-width:1.0;" width="10" x="536.5" y="600.6875"/><rect fill="#B3FFD7" filter="url(#f1knyqceb0kf1s)" height="29.1328" style="stroke:#000000;stroke-width:1.0;" width="10" x="790.5" y="344.4922"/><rect fill="#B3FFD7" filter="url(#f1knyqceb0kf1s)" height="29.1328" style="stroke:#000000;stroke-width:1.0;" width="10" x="790.5" y="402.7578"/><rect fill="#B3FFD7" filter="url(#f1knyqceb0kf1s)" height="29.1328" style="stroke:#000000;stroke-width:1.0;" width="10" x="790.5" y="461.0234"/><rect fill="#B3FFD7" filter="url(#f1knyqceb0kf1s)" height="29.1328" style="stroke:#000000;stroke-width:1.0;" width="10" x="790.5" y="519.2891"/><rect fill="#B3FFD7" filter="url(#f1knyqceb0kf1s)" height="29.1328" style="stroke:#000000;stroke-width:1.0;" width="10" x="790.5" y="679.9531"/><rect fill="#B3FFD7" filter="url(#f1knyqceb0kf1s)" height="29.1328" style="stroke:#000000;stroke-width:1.0;" width="10" x="790.5" y="753.3516"/><rect fill="#B3FFD7" filter="url(#f1knyqceb0kf1s)" height="29.1328" style="stroke:#000000;stroke-width:1.0;" width="10" x="790.5" y="826.75"/><path d="M5,103.2969 L5,128.2969 L149,128.2969 L149,113.2969 L139,103.2969 L5,103.2969 " fill="#FCE079" filter="url(#f1knyqceb0kf1s)" style="stroke:#A80036;stroke-width:1.0;"/><path d="M139,103.2969 L139,113.2969 L149,113.2969 L139,103.2969 " fill="#FCE079" style="stroke:#A80036;stroke-width:1.0;"/><text fill="#000000" font-family="sans-serif" font-size="13" lengthAdjust="spacing" textLength="123" x="11" y="120.3638">Patient ID =  PIDXX</text><path d="M185,142.4297 L185,197.4297 L367,197.4297 L367,152.4297 L357,142.4297 L185,142.4297 " fill="#FCE079" filter="url(#f1knyqceb0kf1s)" style="stroke:#A80036;stroke-width:1.0;"/><path d="M357,142.4297 L357,152.4297 L367,152.4297 L357,142.4297 " fill="#FCE079" style="stroke:#A80036;stroke-width:1.0;"/><text fill="#000000" font-family="sans-serif" font-size="13" lengthAdjust="spacing" textLength="123" x="191" y="159.4966">Device ID = DevXX</text><text fill="#000000" font-family="sans-serif" font-size="13" lengthAdjust="spacing" textLength="159" x="191" y="174.6294">Practitioner ID = PractXX</text><text fill="#000000" font-family="sans-serif" font-size="13" lengthAdjust="spacing" textLength="161" x="191" y="189.7622">StudyInstanceUID = SIUD</text><polygon fill="#005500" points="261.5,223.9609,271.5,227.9609,261.5,231.9609,265.5,227.9609" style="stroke:#005500;stroke-width:1.0;"/><line style="stroke:#005500;stroke-width:1.0;" x1="78.5" x2="267.5" y1="227.9609" y2="227.9609"/><text fill="#000000" font-family="sans-serif" font-size="13" lengthAdjust="spacing" textLength="176" x="88" y="222.895">perform diagnostic imaging</text><polygon fill="#005500" points="519.5,253.0938,529.5,257.0938,519.5,261.0938,523.5,257.0938" style="stroke:#005500;stroke-width:1.0;"/><line style="stroke:#005500;stroke-width:1.0;" x1="283.5" x2="525.5" y1="257.0938" y2="257.0938"/><text fill="#000000" font-family="sans-serif" font-size="13" lengthAdjust="spacing" textLength="229" x="293" y="252.0278">Share Radiation Information (RDSR)</text><polygon fill="#005500" points="294.5,282.2266,284.5,286.2266,294.5,290.2266,290.5,286.2266" style="stroke:#005500;stroke-width:1.0;"/><line style="stroke:#005500;stroke-width:1.0;stroke-dasharray:2.0,2.0;" x1="288.5" x2="535.5" y1="286.2266" y2="286.2266"/><text fill="#000000" font-family="sans-serif" font-size="13" lengthAdjust="spacing" textLength="39" x="390.5" y="281.1606">return</text><polygon fill="#005500" points="89.5,311.3594,79.5,315.3594,89.5,319.3594,85.5,315.3594" style="stroke:#005500;stroke-width:1.0;"/><line style="stroke:#005500;stroke-width:1.0;stroke-dasharray:2.0,2.0;" x1="83.5" x2="277.5" y1="315.3594" y2="315.3594"/><text fill="#000000" font-family="sans-serif" font-size="13" lengthAdjust="spacing" textLength="39" x="159" y="310.2935">return</text><polygon fill="#005500" points="778.5,340.4922,788.5,344.4922,778.5,348.4922,782.5,344.4922" style="stroke:#005500;stroke-width:1.0;"/><line style="stroke:#005500;stroke-width:1.0;" x1="541.5" x2="784.5" y1="344.4922" y2="344.4922"/><text fill="#000000" font-family="sans-serif" font-size="13" lengthAdjust="spacing" textLength="187" x="572.5" y="339.4263">GET Patient?identifier=PIDXX</text><polygon fill="#005500" points="552.5,369.625,542.5,373.625,552.5,377.625,548.5,373.625" style="stroke:#005500;stroke-width:1.0;"/><line style="stroke:#005500;stroke-width:1.0;stroke-dasharray:2.0,2.0;" x1="546.5" x2="794.5" y1="373.625" y2="373.625"/><text fill="#000000" font-family="sans-serif" font-size="13" lengthAdjust="spacing" textLength="88" x="624.5" y="368.5591">return Patient</text><polygon fill="#005500" points="778.5,398.7578,788.5,402.7578,778.5,406.7578,782.5,402.7578" style="stroke:#005500;stroke-width:1.0;"/><line style="stroke:#005500;stroke-width:1.0;" x1="541.5" x2="784.5" y1="402.7578" y2="402.7578"/><text fill="#000000" font-family="sans-serif" font-size="13" lengthAdjust="spacing" textLength="191" x="570.5" y="397.6919">GET Device?identifier=DevXX</text><polygon fill="#005500" points="552.5,427.8906,542.5,431.8906,552.5,435.8906,548.5,431.8906" style="stroke:#005500;stroke-width:1.0;"/><line style="stroke:#005500;stroke-width:1.0;stroke-dasharray:2.0,2.0;" x1="546.5" x2="794.5" y1="431.8906" y2="431.8906"/><text fill="#000000" font-family="sans-serif" font-size="13" lengthAdjust="spacing" textLength="87" x="625" y="426.8247">return Device</text><polygon fill="#005500" points="778.5,457.0234,788.5,461.0234,778.5,465.0234,782.5,461.0234" style="stroke:#005500;stroke-width:1.0;"/><line style="stroke:#005500;stroke-width:1.0;" x1="541.5" x2="784.5" y1="461.0234" y2="461.0234"/><text fill="#000000" font-family="sans-serif" font-size="13" lengthAdjust="spacing" textLength="227" x="552.5" y="455.9575">GET Practitioner?identifier=PractXX</text><polygon fill="#005500" points="552.5,486.1563,542.5,490.1563,552.5,494.1563,548.5,490.1563" style="stroke:#005500;stroke-width:1.0;"/><line style="stroke:#005500;stroke-width:1.0;stroke-dasharray:2.0,2.0;" x1="546.5" x2="794.5" y1="490.1563" y2="490.1563"/><text fill="#000000" font-family="sans-serif" font-size="13" lengthAdjust="spacing" textLength="116" x="610.5" y="485.0903">return Practitioner</text><polygon fill="#005500" points="778.5,515.2891,788.5,519.2891,778.5,523.2891,782.5,519.2891" style="stroke:#005500;stroke-width:1.0;"/><line style="stroke:#005500;stroke-width:1.0;" x1="541.5" x2="784.5" y1="519.2891" y2="519.2891"/><text fill="#000000" font-family="sans-serif" font-size="13" lengthAdjust="spacing" textLength="224" x="554" y="514.2231">GET ImagingStudy?identifier=SIUID</text><polygon fill="#005500" points="552.5,544.4219,542.5,548.4219,552.5,552.4219,548.5,548.4219" style="stroke:#005500;stroke-width:1.0;"/><line style="stroke:#005500;stroke-width:1.0;stroke-dasharray:2.0,2.0;" x1="546.5" x2="794.5" y1="548.4219" y2="548.4219"/><text fill="#000000" font-family="sans-serif" font-size="13" lengthAdjust="spacing" textLength="131" x="603" y="543.356">return ImagingStudy</text><line style="stroke:#005500;stroke-width:1.0;" x1="546.5" x2="588.5" y1="592.6875" y2="592.6875"/><line style="stroke:#005500;stroke-width:1.0;" x1="588.5" x2="588.5" y1="592.6875" y2="605.6875"/><line style="stroke:#005500;stroke-width:1.0;" x1="547.5" x2="588.5" y1="605.6875" y2="605.6875"/><polygon fill="#005500" points="557.5,601.6875,547.5,605.6875,557.5,609.6875,553.5,605.6875" style="stroke:#005500;stroke-width:1.0;"/><text fill="#000000" font-family="sans-serif" font-size="13" lengthAdjust="spacing" textLength="62" x="553.5" y="572.4888">Construct</text><text fill="#000000" font-family="sans-serif" font-size="13" lengthAdjust="spacing" textLength="235" x="553.5" y="587.6216">Radiation Dose Summary Resources</text><polygon fill="#005500" points="778.5,675.9531,788.5,679.9531,778.5,683.9531,782.5,679.9531" style="stroke:#005500;stroke-width:1.0;"/><line style="stroke:#005500;stroke-width:1.0;" x1="541.5" x2="784.5" y1="679.9531" y2="679.9531"/><text fill="#000000" font-family="sans-serif" font-size="13" lengthAdjust="spacing" textLength="34" x="647" y="659.7544">POST</text><text fill="#000000" font-family="sans-serif" font-size="13" lengthAdjust="spacing" textLength="164" x="584" y="674.8872">Radiation Dose Summary</text><polygon fill="#005500" points="547.5,705.0859,537.5,709.0859,547.5,713.0859,543.5,709.0859" style="stroke:#005500;stroke-width:1.0;"/><line style="stroke:#005500;stroke-width:1.0;stroke-dasharray:2.0,2.0;" x1="541.5" x2="794.5" y1="709.0859" y2="709.0859"/><text fill="#000000" font-family="sans-serif" font-size="13" lengthAdjust="spacing" textLength="39" x="646.5" y="704.02">return</text><polygon fill="#005500" points="811.5,749.3516,801.5,753.3516,811.5,757.3516,807.5,753.3516" style="stroke:#005500;stroke-width:1.0;"/><line style="stroke:#005500;stroke-width:1.0;" x1="805.5" x2="1053.5" y1="753.3516" y2="753.3516"/><text fill="#000000" font-family="sans-serif" font-size="13" lengthAdjust="spacing" textLength="102" x="874.5" y="733.1528">Search and GET</text><text fill="#000000" font-family="sans-serif" font-size="13" lengthAdjust="spacing" textLength="235" x="810" y="748.2856">Radiation Dose Summary Resources</text><polygon fill="#005500" points="1042.5,778.4844,1052.5,782.4844,1042.5,786.4844,1046.5,782.4844" style="stroke:#005500;stroke-width:1.0;"/><line style="stroke:#005500;stroke-width:1.0;stroke-dasharray:2.0,2.0;" x1="795.5" x2="1048.5" y1="782.4844" y2="782.4844"/><text fill="#000000" font-family="sans-serif" font-size="13" lengthAdjust="spacing" textLength="106" x="872" y="777.4185">return resources</text><polygon fill="#005500" points="811.5,822.75,801.5,826.75,811.5,830.75,807.5,826.75" style="stroke:#005500;stroke-width:1.0;"/><line style="stroke:#005500;stroke-width:1.0;" x1="805.5" x2="1053.5" y1="826.75" y2="826.75"/><text fill="#000000" font-family="sans-serif" font-size="13" lengthAdjust="spacing" textLength="34" x="908.5" y="806.5513">POST</text><text fill="#000000" font-family="sans-serif" font-size="13" lengthAdjust="spacing" textLength="174" x="840.5" y="821.6841">Radiation Summary Report</text><polygon fill="#005500" points="1042.5,851.8828,1052.5,855.8828,1042.5,859.8828,1046.5,855.8828" style="stroke:#005500;stroke-width:1.0;"/><line style="stroke:#005500;stroke-width:1.0;stroke-dasharray:2.0,2.0;" x1="795.5" x2="1048.5" y1="855.8828" y2="855.8828"/><text fill="#000000" font-family="sans-serif" font-size="13" lengthAdjust="spacing" textLength="39" x="905.5" y="850.8169">return</text><!--MD5=[cb85c78ae4cee58a055d074f1b854908]
@startuml
hide footbox
skinparam sequenceMessageAlign center
skinparam sequence {
ArrowColor #005500
LifeLineBorderColor Black
ActorFontColor Black
ActorBorderColor Black
ParticipantBorderColor Black
ParticipantBackgroundColor #c9f4ff
ActorBackgroundColor #c9f4ff
}

actor Patient
participant "Irradiating Modality" as IrradiatingModality
participant "RDSP Actor" as RDSP
participant "FHIR Server" as server
participant "RDSC Actor" as RDSC

note over Patient #fce079: Patient ID =  PIDXX
note over IrradiatingModality #fce079: Device ID = DevXX\nPractitioner ID = PractXX\nStudyInstanceUID = SIUD

Patient -> IrradiatingModality : perform diagnostic imaging
activate IrradiatingModality #b3ffd7

IrradiatingModality -> RDSP : Share Radiation Information (RDSR)
activate RDSP  #b3ffd7
RDSP - -> IrradiatingModality : return
deactivate RDSP

IrradiatingModality - -> Patient: return
deactivate IrradiatingModality

activate RDSP #b3ffd7

RDSP -> server : GET Patient?identifier=PIDXX
activate server #b3ffd7
server - -> RDSP : return Patient
deactivate server

RDSP -> server : GET Device?identifier=DevXX
activate server #b3ffd7
server - -> RDSP : return Device
deactivate server

RDSP -> server : GET Practitioner?identifier=PractXX
activate server #b3ffd7
server - -> RDSP : return Practitioner
deactivate server

RDSP -> server : GET ImagingStudy?identifier=SIUID
activate server #b3ffd7
server - -> RDSP : return ImagingStudy
deactivate server

RDSP -> RDSP  : Construct \nRadiation Dose Summary Resources
activate RDSP #b3ffd7
deactivate RDSP

RDSP -> server : POST \nRadiation Dose Summary
activate server #b3ffd7
server - -> RDSP : return
deactivate server
deactivate RDSP

RDSC -> server: Search and GET \nRadiation Dose Summary Resources
activate server #b3ffd7
server - -> RDSC : return resources
deactivate server

RDSC -> server: POST \nRadiation Summary Report
activate server #b3ffd7
server - -> RDSC : return
deactivate server
@enduml

PlantUML version 1.2021.9beta2(Unknown compile time)
(GPL source distribution)
Java Runtime: Java(TM) SE Runtime Environment
JVM: Java HotSpot(TM) 64-Bit Server VM
Default Encoding: UTF-8
Language: en
Country: US
--></g></svg>