<?xml version="1.0" encoding="utf-8"?>
<!DOCTYPE svg PUBLIC "-//W3C//DTD SVG 1.1//EN" "http://www.w3.org/Graphics/SVG/1.1/DTD/svg11.dtd">
<svg version="1.1" xmlns="http://www.w3.org/2000/svg" xmlns:xlink="http://www.w3.org/1999/xlink" xmlns:xml="http://www.w3.org/XML/1998/namespace" width="887px" height="454px" viewBox="0, 0, 887, 454" preserveAspectRatio="none" contentStyleType="text/css" zoomAndPan="magnify" style="background:#FFF;">
  <defs />
  <g>
    <rect x="155" y="92.6094" width="10" height="121.0547" stroke-width="1" style="fill:white;stroke:#181818;" />
    <rect x="325.5" y="183.6641" width="10" height="30" stroke-width="1" style="fill:white;stroke:#181818;" />
    <rect x="325.5" y="281.3672" width="10" height="14" stroke-width="1" style="fill:white;stroke:#181818;" />
    <rect x="529.5" y="251.0156" width="10" height="178.4063" stroke-width="1" style="fill:white;stroke:#181818;" />
    <rect x="789.5" y="399.4219" width="10" height="39" stroke-width="1" style="fill:white;stroke:#181818;" />
    <rect x="81" y="99.6094" width="351" height="122.0547" stroke-width="1.5" style="fill:none;stroke:black;" />
    <line x1="43" y1="82.6094" x2="43" y2="447.4219" stroke-width="0.5" stroke-dasharray="5 5" style="stroke:#181818;" />
    <line x1="160" y1="82.6094" x2="160" y2="447.4219" stroke-width="0.5" stroke-dasharray="5 5" style="stroke:#181818;" />
    <line x1="330" y1="82.6094" x2="330" y2="447.4219" stroke-width="0.5" stroke-dasharray="5 5" style="stroke:#181818;" />
    <line x1="534" y1="82.6094" x2="534" y2="447.4219" stroke-width="0.5" stroke-dasharray="5 5" style="stroke:#181818;" />
    <line x1="794.5" y1="82.6094" x2="794.5" y2="447.4219" stroke-width="0.5" stroke-dasharray="5 5" style="stroke:#181818;" />
    <text x="5" y="79.5332" textLength="70" lengthAdjust="spacing" font-family="sans-serif" font-size="14" style="fill:black;">Radiologist</text>
    <ellipse cx="43" cy="13.5" rx="8" ry="8" stroke-width="0.5" style="fill:#E2E2F0;stroke:#181818;" />
    <path d="M43 21.5 L43 48.5 M30 29.5 L56 29.5 M43 48.5 L30 63.5 M43 48.5 L56 63.5" stroke-width="0.5" style="fill:none;stroke:#181818;" />
    <rect x="91" y="50" width="138" height="31.6094" rx="2.5" ry="2.5" stroke-width="0.5" style="fill:#E2E2F0;stroke:#181818;" />
    <text x="98" y="71.5332" textLength="124" lengthAdjust="spacing" font-family="sans-serif" font-size="14" style="fill:black;">Acquisition Modality</text>
    <rect x="239" y="32.3906" width="183" height="49.2188" rx="2.5" ry="2.5" stroke-width="0.5" style="fill:#E2E2F0;stroke:#181818;" />
    <text x="246" y="53.9238" textLength="169" lengthAdjust="spacing" font-family="sans-serif" font-size="14" style="fill:black;">Dose Management System</text>
    <text x="310.5" y="71.5332" textLength="40" lengthAdjust="spacing" font-family="sans-serif" font-size="14" style="fill:black;">(DMS)</text>
    <rect x="432" y="32.3906" width="205" height="49.2188" rx="2.5" ry="2.5" stroke-width="0.5" style="fill:#E2E2F0;stroke:#181818;" />
    <text x="439" y="53.9238" textLength="187" lengthAdjust="spacing" font-family="sans-serif" font-size="14" style="fill:black;">Radiology Information System</text>
    <text x="518.5" y="71.5332" textLength="32" lengthAdjust="spacing" font-family="sans-serif" font-size="14" style="fill:black;">(RIS)</text>
    <rect x="707.5" y="32.3906" width="174" height="49.2188" rx="2.5" ry="2.5" stroke-width="0.5" style="fill:#E2E2F0;stroke:#181818;" />
    <text x="714.5" y="53.9238" textLength="156" lengthAdjust="spacing" font-family="sans-serif" font-size="14" style="fill:black;">Electronic Health Record</text>
    <text x="775.5" y="71.5332" textLength="38" lengthAdjust="spacing" font-family="sans-serif" font-size="14" style="fill:black;">(EHR)</text>
    <rect x="155" y="92.6094" width="10" height="121.0547" stroke-width="1" style="fill:white;stroke:#181818;" />
    <rect x="325.5" y="183.6641" width="10" height="30" stroke-width="1" style="fill:white;stroke:#181818;" />
    <rect x="325.5" y="281.3672" width="10" height="14" stroke-width="1" style="fill:white;stroke:#181818;" />
    <rect x="529.5" y="251.0156" width="10" height="178.4063" stroke-width="1" style="fill:white;stroke:#181818;" />
    <rect x="789.5" y="399.4219" width="10" height="39" stroke-width="1" style="fill:white;stroke:#181818;" />
    <path d="M81 99.6094 L225 99.6094 L225 107.9609 L215 117.9609 L81 117.9609 L81 99.6094" stroke-width="1.5" style="fill:#EEEEEE;stroke:black;" />
    <rect x="81" y="99.6094" width="351" height="122.0547" stroke-width="1.5" style="fill:none;stroke:black;" />
    <text x="96" y="114.1045" textLength="99" lengthAdjust="spacing" font-family="sans-serif" font-size="13" font-weight="bold" style="fill:black;">IHE REM Profile</text>
    <line x1="165" y1="140.3125" x2="207" y2="140.3125" stroke-width="1" style="stroke:#181818;" />
    <line x1="207" y1="140.3125" x2="207" y2="153.3125" stroke-width="1" style="stroke:#181818;" />
    <line x1="166" y1="153.3125" x2="207" y2="153.3125" stroke-width="1" style="stroke:#181818;" />
    <polygon points="176,149.3125 166,153.3125 176,157.3125 172,153.3125" stroke-width="1" style="fill:#181818;stroke:#181818;" />
    <text x="172" y="135.4561" textLength="81" lengthAdjust="spacing" font-family="sans-serif" font-size="13" style="fill:black;">Perform study</text>
    <polygon points="313.5,179.6641 323.5,183.6641 313.5,187.6641 317.5,183.6641" stroke-width="1" style="fill:#181818;stroke:#181818;" />
    <line x1="165" y1="183.6641" x2="319.5" y2="183.6641" stroke-width="1" style="stroke:#181818;" />
    <text x="172" y="178.8076" textLength="130" lengthAdjust="spacing" font-family="sans-serif" font-size="13" style="fill:black;">Store dose information</text>
    <polygon points="517.5,247.0156 527.5,251.0156 517.5,255.0156 521.5,251.0156" stroke-width="1" style="fill:#181818;stroke:#181818;" />
    <line x1="43" y1="251.0156" x2="523.5" y2="251.0156" stroke-width="1" style="stroke:#181818;" />
    <text x="50" y="246.1592" textLength="78" lengthAdjust="spacing" font-family="sans-serif" font-size="13" style="fill:black;">Dictate report</text>
    <polygon points="346.5,277.3672 336.5,281.3672 346.5,285.3672 342.5,281.3672" stroke-width="1" style="fill:#181818;stroke:#181818;" />
    <line x1="340.5" y1="281.3672" x2="528.5" y2="281.3672" stroke-width="1" style="stroke:#181818;" />
    <text x="352.5" y="276.5107" textLength="153" lengthAdjust="spacing" font-family="sans-serif" font-size="13" style="fill:black;">GET FHIR Dose Summary</text>
    <polygon points="517.5,291.3672 527.5,295.3672 517.5,299.3672 521.5,295.3672" stroke-width="1" style="fill:#181818;stroke:#181818;" />
    <line x1="330.5" y1="295.3672" x2="523.5" y2="295.3672" stroke-width="1" stroke-dasharray="2 2" style="stroke:#181818;" />
    <line x1="539.5" y1="325.7188" x2="581.5" y2="325.7188" stroke-width="1" style="stroke:#181818;" />
    <line x1="581.5" y1="325.7188" x2="581.5" y2="338.7188" stroke-width="1" style="stroke:#181818;" />
    <line x1="540.5" y1="338.7188" x2="581.5" y2="338.7188" stroke-width="1" style="stroke:#181818;" />
    <polygon points="550.5,334.7188 540.5,338.7188 550.5,342.7188 546.5,338.7188" stroke-width="1" style="fill:#181818;stroke:#181818;" />
    <text x="546.5" y="320.8623" textLength="236" lengthAdjust="spacing" font-family="sans-serif" font-size="13" style="fill:black;">Consolidate dictation and dose summary</text>
    <polygon points="517.5,365.0703 527.5,369.0703 517.5,373.0703 521.5,369.0703" stroke-width="1" style="fill:#181818;stroke:#181818;" />
    <line x1="43" y1="369.0703" x2="523.5" y2="369.0703" stroke-width="1" style="stroke:#181818;" />
    <text x="50" y="364.2139" textLength="63" lengthAdjust="spacing" font-family="sans-serif" font-size="13" style="fill:black;">Sign report</text>
    <polygon points="777.5,395.4219 787.5,399.4219 777.5,403.4219 781.5,399.4219" stroke-width="1" style="fill:#181818;stroke:#181818;" />
    <line x1="539.5" y1="399.4219" x2="783.5" y2="399.4219" stroke-width="1" style="stroke:#181818;" />
    <text x="546.5" y="394.5654" textLength="120" lengthAdjust="spacing" font-family="sans-serif" font-size="13" style="fill:black;">Share imaging report</text>
  </g>
</svg>