<?xml version="1.0" encoding="UTF-8" standalone="no"?><svg xmlns="http://www.w3.org/2000/svg" xmlns:xlink="http://www.w3.org/1999/xlink" contentScriptType="application/ecmascript" contentStyleType="text/css" height="556px" preserveAspectRatio="none" style="width:1023px;height:556px;background:#FFFFFF;" version="1.1" viewBox="0 0 1023 556" width="1023px" zoomAndPan="magnify"><defs><filter height="300%" id="f1ncydndeh8141" width="300%" x="-1" y="-1"><feGaussianBlur result="blurOut" stdDeviation="2.0"/><feColorMatrix in="blurOut" result="blurOut2" type="matrix" values="0 0 0 0 0 0 0 0 0 0 0 0 0 0 0 0 0 0 .4 0"/><feOffset dx="4.0" dy="4.0" in="blurOut2" result="blurOut3"/><feBlend in="SourceGraphic" in2="blurOut3" mode="normal"/></filter></defs><g><rect fill="#C9F4FF" filter="url(#f1ncydndeh8141)" height="87.3984" style="stroke:#000000;stroke-width:1.0;" width="10" x="219.5" y="143.5625"/><rect fill="#C9F4FF" filter="url(#f1ncydndeh8141)" height="29.1328" style="stroke:#000000;stroke-width:1.0;" width="10" x="427.5" y="172.6953"/><rect fill="#008000" filter="url(#f1ncydndeh8141)" height="29.1328" style="stroke:#000000;stroke-width:1.0;" width="10" x="427.5" y="340.4922"/><rect fill="#C9F4FF" filter="url(#f1ncydndeh8141)" height="272.0625" style="stroke:#000000;stroke-width:1.0;" width="10" x="664" y="267.0938"/><rect fill="#C9F4FF" filter="url(#f1ncydndeh8141)" height="28" style="stroke:#000000;stroke-width:1.0;" width="10" x="669" y="406.7578"/><rect fill="#C9F4FF" filter="url(#f1ncydndeh8141)" height="29.1328" style="stroke:#000000;stroke-width:1.0;" width="10" x="894" y="495.0234"/><rect fill="#FFFFFF" filter="url(#f1ncydndeh8141)" height="133.6641" style="stroke:#FCB819;stroke-width:2.0;" width="539.5" x="10" y="105.2969"/><rect fill="#FFFFFF" filter="url(#f1ncydndeh8141)" height="75.3984" style="stroke:#FCB819;stroke-width:2.0;" width="470" x="539.5" y="456.7578"/><line style="stroke:#000000;stroke-width:1.0;stroke-dasharray:5.0,5.0;" x1="49" x2="49" y1="88.2969" y2="549.1563"/><line style="stroke:#000000;stroke-width:1.0;stroke-dasharray:5.0,5.0;" x1="132" x2="132" y1="88.2969" y2="549.1563"/><line style="stroke:#000000;stroke-width:1.0;stroke-dasharray:5.0,5.0;" x1="224" x2="224" y1="88.2969" y2="549.1563"/><line style="stroke:#000000;stroke-width:1.0;stroke-dasharray:5.0,5.0;" x1="432.5" x2="432.5" y1="88.2969" y2="549.1563"/><line style="stroke:#000000;stroke-width:1.0;stroke-dasharray:5.0,5.0;" x1="668.5" x2="668.5" y1="88.2969" y2="549.1563"/><line style="stroke:#000000;stroke-width:1.0;stroke-dasharray:5.0,5.0;" x1="898.5" x2="898.5" y1="88.2969" y2="549.1563"/><text fill="#000000" font-family="sans-serif" font-size="14" lengthAdjust="spacing" textLength="53" x="20" y="84.9951">Patient</text><ellipse cx="49.5" cy="15" fill="#C9F4FF" filter="url(#f1ncydndeh8141)" rx="8" ry="8" style="stroke:#000000;stroke-width:2.0;"/><path d="M49.5,23 L49.5,50 M36.5,31 L62.5,31 M49.5,50 L36.5,65 M49.5,50 L62.5,65 " fill="none" filter="url(#f1ncydndeh8141)" style="stroke:#000000;stroke-width:2.0;"/><text fill="#000000" font-family="sans-serif" font-size="14" lengthAdjust="spacing" textLength="80" x="89" y="84.9951">Radiologist</text><ellipse cx="132" cy="15" fill="#C9F4FF" filter="url(#f1ncydndeh8141)" rx="8" ry="8" style="stroke:#000000;stroke-width:2.0;"/><path d="M132,23 L132,50 M119,31 L145,31 M132,50 L119,65 M132,50 L145,65 " fill="none" filter="url(#f1ncydndeh8141)" style="stroke:#000000;stroke-width:2.0;"/><rect fill="#C9F4FF" filter="url(#f1ncydndeh8141)" height="30.2969" style="stroke:#000000;stroke-width:1.5;" width="75" x="185" y="53"/><text fill="#000000" font-family="sans-serif" font-size="14" lengthAdjust="spacing" textLength="61" x="192" y="72.9951">Modality</text><rect fill="#C9F4FF" filter="url(#f1ncydndeh8141)" height="46.5938" style="stroke:#000000;stroke-width:1.5;" width="210" x="325.5" y="36.7031"/><text fill="#000000" font-family="sans-serif" font-size="14" lengthAdjust="spacing" textLength="192" x="332.5" y="56.6982">Dose Management System</text><text fill="#000000" font-family="sans-serif" font-size="14" lengthAdjust="spacing" textLength="42" x="409.5" y="72.9951">(DMS)</text><rect fill="#C9F4FF" filter="url(#f1ncydndeh8141)" height="46.5938" style="stroke:#000000;stroke-width:1.5;" width="235" x="549.5" y="36.7031"/><text fill="#000000" font-family="sans-serif" font-size="14" lengthAdjust="spacing" textLength="217" x="556.5" y="56.6982">Radiology Information System</text><text fill="#000000" font-family="sans-serif" font-size="14" lengthAdjust="spacing" textLength="33" x="650.5" y="72.9951">(RIS)</text><rect fill="#C9F4FF" filter="url(#f1ncydndeh8141)" height="46.5938" style="stroke:#000000;stroke-width:1.5;" width="197" x="798.5" y="36.7031"/><text fill="#000000" font-family="sans-serif" font-size="14" lengthAdjust="spacing" textLength="179" x="805.5" y="56.6982">Electronic Health Record</text><text fill="#000000" font-family="sans-serif" font-size="14" lengthAdjust="spacing" textLength="39" x="877.5" y="72.9951">(EHR)</text><rect fill="#C9F4FF" filter="url(#f1ncydndeh8141)" height="87.3984" style="stroke:#000000;stroke-width:1.0;" width="10" x="219.5" y="143.5625"/><rect fill="#C9F4FF" filter="url(#f1ncydndeh8141)" height="29.1328" style="stroke:#000000;stroke-width:1.0;" width="10" x="427.5" y="172.6953"/><rect fill="#008000" filter="url(#f1ncydndeh8141)" height="29.1328" style="stroke:#000000;stroke-width:1.0;" width="10" x="427.5" y="340.4922"/><rect fill="#C9F4FF" filter="url(#f1ncydndeh8141)" height="272.0625" style="stroke:#000000;stroke-width:1.0;" width="10" x="664" y="267.0938"/><rect fill="#C9F4FF" filter="url(#f1ncydndeh8141)" height="28" style="stroke:#000000;stroke-width:1.0;" width="10" x="669" y="406.7578"/><rect fill="#C9F4FF" filter="url(#f1ncydndeh8141)" height="29.1328" style="stroke:#000000;stroke-width:1.0;" width="10" x="894" y="495.0234"/><path d="M10,105.2969 L87,105.2969 L87,112.2969 L77,122.2969 L10,122.2969 L10,105.2969 " fill="#FFDF96" style="stroke:#FCB819;stroke-width:1.0;"/><rect fill="none" height="133.6641" style="stroke:#FCB819;stroke-width:2.0;" width="539.5" x="10" y="105.2969"/><text fill="#000000" font-family="sans-serif" font-size="13" font-weight="bold" lengthAdjust="spacing" textLength="32" x="25" y="118.3638">REM</text><polygon fill="#000000" points="207.5,139.5625,217.5,143.5625,207.5,147.5625,211.5,143.5625" style="stroke:#000000;stroke-width:1.0;"/><line style="stroke:#000000;stroke-width:1.0;" x1="49.5" x2="213.5" y1="143.5625" y2="143.5625"/><text fill="#000000" font-family="sans-serif" font-size="13" lengthAdjust="spacing" textLength="93" x="88" y="138.4966">perform exam</text><polygon fill="#000000" points="415.5,168.6953,425.5,172.6953,415.5,176.6953,419.5,172.6953" style="stroke:#000000;stroke-width:1.0;"/><line style="stroke:#000000;stroke-width:1.0;" x1="229.5" x2="421.5" y1="172.6953" y2="172.6953"/><text fill="#000000" font-family="sans-serif" font-size="13" lengthAdjust="spacing" textLength="179" x="239" y="167.6294">Share Radiation Information</text><polygon fill="#000000" points="240.5,197.8281,230.5,201.8281,240.5,205.8281,236.5,201.8281" style="stroke:#000000;stroke-width:1.0;"/><line style="stroke:#000000;stroke-width:1.0;stroke-dasharray:2.0,2.0;" x1="234.5" x2="431.5" y1="201.8281" y2="201.8281"/><text fill="#000000" font-family="sans-serif" font-size="13" lengthAdjust="spacing" textLength="39" x="311.5" y="196.7622">return</text><polygon fill="#000000" points="60.5,226.9609,50.5,230.9609,60.5,234.9609,56.5,230.9609" style="stroke:#000000;stroke-width:1.0;"/><line style="stroke:#000000;stroke-width:1.0;stroke-dasharray:2.0,2.0;" x1="54.5" x2="223.5" y1="230.9609" y2="230.9609"/><text fill="#000000" font-family="sans-serif" font-size="13" lengthAdjust="spacing" textLength="39" x="117.5" y="225.895">return</text><polygon fill="#000000" points="652,263.0938,662,267.0938,652,271.0938,656,267.0938" style="stroke:#000000;stroke-width:1.0;"/><line style="stroke:#000000;stroke-width:1.0;" x1="132" x2="658" y1="267.0938" y2="267.0938"/><text fill="#000000" font-family="sans-serif" font-size="13" lengthAdjust="spacing" textLength="76" x="360" y="262.0278">share notes</text><polygon fill="#000000" points="143,292.2266,133,296.2266,143,300.2266,139,296.2266" style="stroke:#000000;stroke-width:1.0;"/><line style="stroke:#000000;stroke-width:1.0;stroke-dasharray:2.0,2.0;" x1="137" x2="663" y1="296.2266" y2="296.2266"/><text fill="#000000" font-family="sans-serif" font-size="13" lengthAdjust="spacing" textLength="39" x="378.5" y="291.1606">return</text><polygon fill="#005500" points="448.5,336.4922,438.5,340.4922,448.5,344.4922,444.5,340.4922" style="stroke:#005500;stroke-width:1.0;"/><line style="stroke:#005500;stroke-width:1.0;" x1="442.5" x2="663" y1="340.4922" y2="340.4922"/><text fill="#008000" font-family="sans-serif" font-size="13" lengthAdjust="spacing" textLength="58" x="521.75" y="320.2935">GET FHIR</text><text fill="#008000" font-family="sans-serif" font-size="13" lengthAdjust="spacing" textLength="100" x="500.75" y="335.4263">Dose Summary</text><polygon fill="#005500" points="652,365.625,662,369.625,652,373.625,656,369.625" style="stroke:#005500;stroke-width:1.0;"/><line style="stroke:#005500;stroke-width:1.0;stroke-dasharray:2.0,2.0;" x1="432.5" x2="658" y1="369.625" y2="369.625"/><text fill="#008000" font-family="sans-serif" font-size="13" lengthAdjust="spacing" textLength="39" x="528.75" y="364.5591">return</text><line style="stroke:#000000;stroke-width:1.0;" x1="679" x2="721" y1="398.7578" y2="398.7578"/><line style="stroke:#000000;stroke-width:1.0;" x1="721" x2="721" y1="398.7578" y2="411.7578"/><line style="stroke:#000000;stroke-width:1.0;" x1="680" x2="721" y1="411.7578" y2="411.7578"/><polygon fill="#000000" points="690,407.7578,680,411.7578,690,415.7578,686,411.7578" style="stroke:#000000;stroke-width:1.0;"/><text fill="#000000" font-family="sans-serif" font-size="13" lengthAdjust="spacing" textLength="141" x="686" y="393.6919">consolidate the report</text><path d="M539.5,456.7578 L639.5,456.7578 L639.5,463.7578 L629.5,473.7578 L539.5,473.7578 L539.5,456.7578 " fill="#FFDF96" style="stroke:#FCB819;stroke-width:1.0;"/><rect fill="none" height="75.3984" style="stroke:#FCB819;stroke-width:2.0;" width="470" x="539.5" y="456.7578"/><text fill="#000000" font-family="sans-serif" font-size="13" font-weight="bold" lengthAdjust="spacing" textLength="55" x="554.5" y="469.8247">XDS-I.b</text><polygon fill="#000000" points="882,491.0234,892,495.0234,882,499.0234,886,495.0234" style="stroke:#000000;stroke-width:1.0;"/><line style="stroke:#000000;stroke-width:1.0;" x1="674" x2="888" y1="495.0234" y2="495.0234"/><text fill="#000000" font-family="sans-serif" font-size="13" lengthAdjust="spacing" textLength="134" x="717" y="489.9575">share imaging report</text><polygon fill="#000000" points="685,520.1563,675,524.1563,685,528.1563,681,524.1563" style="stroke:#000000;stroke-width:1.0;"/><line style="stroke:#000000;stroke-width:1.0;stroke-dasharray:2.0,2.0;" x1="679" x2="898" y1="524.1563" y2="524.1563"/><text fill="#000000" font-family="sans-serif" font-size="13" lengthAdjust="spacing" textLength="39" x="767" y="519.0903">return</text><!--MD5=[18fcd49d9e3326227c5d4c4e677e45c6]
@startuml
hide footbox
skinparam sequenceMessageAlign center
skinparam sequenceGroupBackgroundColor #ffdf96
skinparam sequenceGroupBorderColor #fcb819

skinparam sequence {
ArrowColor Black
LifeLineBorderColor Black
ActorFontColor Black
ActorBorderColor Black
ParticipantBorderColor Black
ParticipantBackgroundColor #c9f4ff
ActorBackgroundColor #c9f4ff
}

actor Patient
actor Radiologist
participant "Modality" as Modality
participant "Dose Management System \n(DMS)" as DMS
participant "Radiology Information System \n(RIS)" as RIS
participant "Electronic Health Record \n(EHR)" as EHR

group REM 
  Patient -> Modality : perform exam
  activate Modality #c9f4ff

  Modality -> DMS : Share Radiation Information
  activate DMS  #c9f4ff
  DMS - -> Modality : return
  deactivate DMS
  Modality - -> Patient: return
  deactivate Modality
end


Radiologist -> RIS: share notes
activate RIS #c9f4ff
RIS - -> Radiologist: return


RIS -[#005500]> DMS : <font color=green>GET FHIR\n<font color=green>Dose Summary 
activate DMS #green
DMS - -[#005500]> RIS : <font color=green>return
deactivate DMS

RIS -> RIS : consolidate the report
activate RIS #c9f4ff
deactivate RIS

group XDS-I.b
   RIS -> EHR : share imaging report
   activate EHR #c9f4ff
   EHR - -> RIS : return 
   deactivate EHR
end

deactivate RIS
@enduml

PlantUML version 1.2021.9beta2(Unknown compile time)
(GPL source distribution)
Java Runtime: Java(TM) SE Runtime Environment
JVM: Java HotSpot(TM) 64-Bit Server VM
Default Encoding: UTF-8
Language: en
Country: US
--></g></svg>